<svg version="1.2" xmlns="http://www.w3.org/2000/svg" viewBox="0 0 1364 960" width="1364" height="960">
	<title>FAQ-03-ai</title>
	<style>
		.s0 { fill: #e3e5f2 } 
		.s1 { fill: #5550bc } 
		.s2 { fill: #31319b } 
		.s3 { fill: #f4ae3d } 
		.s4 { fill: #d8881e } 
		.s5 { fill: #9888ed } 
		.s6 { fill: #ffcc75 } 
		.s7 { mix-blend-mode: screen;fill: #abcfff } 
		.s8 { mix-blend-mode: screen;fill: #6d6e71 } 
		.s9 { fill: #ffac83 } 
		.s10 { fill: #ff9557 } 
		.s11 { fill: #ffffff } 
		.s12 { fill: #f1cccd } 
		.s13 { fill: #242d5e } 
		.s14 { fill: #2c3773 } 
		.s15 { fill: #353d78 } 
		.s16 { fill: #f9cbcb } 
		.s17 { fill: #ff9e66 } 
		.s18 { fill: #ff8b47 } 
		.s19 { fill: #ff7e33 } 
		.s20 { fill: #20206e } 
		.s21 { fill: #ffbc47 } 
		.s22 { fill: #f0b4b4 } 
		.s23 { fill: #119680 } 
		.s24 { fill: #cccccc } 
		.s25 { mix-blend-mode: multiply;fill: #cccccc } 
		.s26 { fill: #e6e6e6 } 
		.s27 { fill: #ffd8d9 } 
		.s28 { fill: #222b59 } 
		.s29 { fill: #c4626e } 
		.s30 { fill: #d7e0fa } 
		.s31 { fill: #eb8041 } 
	</style>
	<g id="_Artboards_">
	</g>
	<g id="Layer 1">
		<g id="&lt;Group&gt;">
			<g id="&lt;Group&gt;">
				<g id="&lt;Group&gt;">
					<path id="&lt;Path&gt;" class="s0" d="m526.1 390.2l-0.1 57.4-51.2 29.7 0.2-57.4z"/>
				</g>
				<g id="&lt;Group&gt;">
					<path id="&lt;Path&gt;" class="s0" d="m631.3 448.9l-0.1 57.4-105.2-60.7 0.1-57.4z"/>
				</g>
				<g id="&lt;Group&gt;">
					<path id="&lt;Path&gt;" class="s0" d="m667.9 429.7l-0.2 57.4-36.5 21.2 0.1-57.4z"/>
				</g>
				<g id="&lt;Group&gt;">
					<path id="&lt;Path&gt;" class="s0" d="m565.8 472.3l-0.2 57.5-36.5 21.2 0.1-57.4z"/>
				</g>
				<g id="&lt;Group&gt;">
					<path id="&lt;Path&gt;" class="s0" d="m529.2 493.6l-0.1 57.4-90.9-52.4 0.2-57.4z"/>
				</g>
				<g id="&lt;Group&gt;">
					<path id="&lt;Path&gt;" class="s0" d="m438.4 441.2l-0.2 57.4-91.8 53.4 0.2-57.5z"/>
				</g>
				<g id="&lt;Group&gt;">
					<path id="&lt;Path&gt;" class="s0" d="m346.6 494.5l-0.2 57.5-43.9-25.4 0.1-57.4z"/>
				</g>
				<g id="&lt;Group&gt;">
					<path id="&lt;Path&gt;" class="s0" d="m598 582.8l-0.2 57.5-67 18.1 0.2-57.4z"/>
				</g>
				<g id="&lt;Group&gt;">
					<path id="&lt;Path&gt;" class="s0" d="m531 601l-0.2 57.4-46.6-26.9 0.2-57.4z"/>
				</g>
				<g id="&lt;Group&gt;">
					<path id="&lt;Path&gt;" class="s0" d="m685 633l-0.2 57.5-87-50.2 0.2-57.5z"/>
				</g>
				<g id="&lt;Group&gt;">
					<path id="&lt;Path&gt;" class="s0" d="m702.6 700.1l-0.1 57.4-47.8-27.5 0.2-57.5z"/>
				</g>
				<g id="&lt;Group&gt;">
					<path id="&lt;Path&gt;" class="s0" d="m831.7 524.2l-0.2 57.5-129 175.8 0.1-57.4z"/>
				</g>
				<g id="&lt;Group&gt;">
					<path id="&lt;Path&gt;" class="s0" d="m1061.7 718.2l-0.2 57.4q0.1-18.4-24.6-32.7-26.4-15.2-61.1-14.1-34.6 1.1-71.3 22.4-37.2 21.7-39.2 41.9-0.2 1.5-0.2 2.9l0.2-57.4q0-1.5 0.1-3 2.1-20.2 39.3-41.8 36.6-21.3 71.3-22.4 34.6-1.2 61 14.1 24.7 14.2 24.7 32.7z"/>
				</g>
				<g id="&lt;Group&gt;">
					<path id="&lt;Path&gt;" class="s0" d="m807 789.8l0.2-57.5q-0.1 32.3 48.4 60.3 25.5 14.7 55.6 21.5l-0.2 57.5q-30.1-6.8-55.6-21.6-48.5-28-48.4-60.2z"/>
				</g>
				<g id="&lt;Group&gt;">
					<path id="&lt;Path&gt;" class="s0" d="m1120.4 723.4l-0.1 57.4q0 0.6 0 1.3-1.1 32.8-53.1 63-27.5 16-56.1 23.7-21.7 5.9-49.5 7.2l0.2-57.5q27.7-1.3 49.5-7.1 28.6-7.7 56.1-23.7 52-30.2 53-63.1 0-0.6 0-1.2z"/>
				</g>
				<path id="&lt;Path&gt;" class="s0" d="m921.1 841.7q-1.1-1.8-9.9-27.6l-0.2 57.5q8.9 25.7 9.9 27.5 4.3 8.3 11.1 15.6l0.2-57.4q-6.9-7.3-11.1-15.6z"/>
				<g id="&lt;Group&gt;">
					<path id="&lt;Path&gt;" class="s0" d="m978.4 848.9l-0.2 57.4-46.2 8.4 0.2-57.4z"/>
				</g>
			</g>
			<g id="&lt;Group&gt;">
				<g id="&lt;Group&gt;">
					<path id="&lt;Path&gt;" class="s1" d="m526.1 369.3l-0.1 57.4-51.2 29.8 0.2-57.5z"/>
				</g>
				<g id="&lt;Group&gt;">
					<path id="&lt;Path&gt;" class="s2" d="m631.3 430l-0.1 57.5-105.2-60.8 0.1-57.4z"/>
				</g>
				<g id="&lt;Group&gt;">
					<path id="&lt;Path&gt;" class="s1" d="m667.9 408.8l-0.2 57.4-36.5 21.3 0.1-57.5z"/>
				</g>
				<g id="&lt;Group&gt;">
					<path id="&lt;Path&gt;" class="s1" d="m565.8 451.4l-0.2 57.5-36.5 21.2 0.1-57.4z"/>
				</g>
				<g id="&lt;Group&gt;">
					<path id="&lt;Path&gt;" class="s2" d="m529.2 472.7l-0.1 57.4-90.9-52.4 0.2-57.4z"/>
				</g>
				<g id="&lt;Group&gt;">
					<path id="&lt;Path&gt;" class="s1" d="m438.4 420.3l-0.2 57.4-91.8 53.4 0.2-57.5z"/>
				</g>
				<g id="&lt;Group&gt;">
					<path id="&lt;Path&gt;" class="s2" d="m346.6 473.6l-0.2 57.5-43.9-25.4 0.1-57.4z"/>
				</g>
				<g id="&lt;Group&gt;">
					<path id="&lt;Path&gt;" class="s3" d="m757.5 518.9l-0.2 57.5-109.5 29.6 0.1-57.4z"/>
				</g>
				<g id="&lt;Group&gt;">
					<path id="&lt;Path&gt;" class="s3" d="m598 561.9l-0.2 57.5-67 18.1 0.2-57.4z"/>
				</g>
				<g id="&lt;Group&gt;">
					<path id="&lt;Path&gt;" class="s4" d="m531 580.1l-0.2 57.4-46.6-26.9 0.2-57.4z"/>
				</g>
				<g id="&lt;Group&gt;">
					<path id="&lt;Path&gt;" class="s4" d="m685 612.1l-0.2 57.5-87-50.2 0.2-57.5z"/>
				</g>
				<g id="&lt;Group&gt;">
					<path id="&lt;Path&gt;" class="s4" d="m702.6 679.2l-0.1 57.5-47.8-27.6 0.2-57.5z"/>
				</g>
				<g id="&lt;Group&gt;">
					<path id="&lt;Path&gt;" class="s3" d="m831.7 503.3l-0.2 57.5-129 175.9 0.1-57.5z"/>
				</g>
				<g id="&lt;Group&gt;">
					<path id="&lt;Path&gt;" class="s1" d="m1061.7 697.3l-0.2 57.4q0.1-18.4-24.6-32.7-26.4-15.2-61.1-14.1-34.6 1.1-71.3 22.4-37.2 21.7-39.2 41.9-0.2 1.5-0.2 2.9l0.2-57.4q0-1.5 0.1-3 2.1-20.2 39.3-41.8 36.6-21.3 71.3-22.4 34.6-1.2 61 14.1 24.7 14.2 24.7 32.7z"/>
				</g>
				<g id="&lt;Group&gt;">
					<path id="&lt;Path&gt;" class="s2" d="m909.1 757.8l-0.2 57.5q-4.5-12.6-13.3-23.2l0.1-57.4q8.8 10.6 13.4 23.1z"/>
				</g>
				<g id="&lt;Group&gt;">
					<path id="&lt;Path&gt;" class="s2" d="m807 768.9l0.2-57.4q-0.1 32.2 48.4 60.2 25.5 14.7 55.6 21.5l-0.2 57.5q-30.1-6.8-55.6-21.6-48.5-27.9-48.4-60.2z"/>
				</g>
				<g id="&lt;Group&gt;">
					<path id="&lt;Path&gt;" class="s1" d="m1120.4 702.5l-0.1 57.4q0 0.6 0 1.3-1.1 32.8-53.1 63.1-27.5 15.9-56.1 23.6-21.7 5.9-49.5 7.2l0.2-57.5q27.7-1.2 49.5-7.1 28.6-7.7 56.1-23.7 52-30.2 53-63.1 0-0.6 0-1.2z"/>
				</g>
				<path id="&lt;Path&gt;" class="s1" d="m921.1 820.8q-1.1-1.8-9.9-27.6l-0.2 57.5q8.9 25.7 9.9 27.5 4.3 8.3 11.1 15.6l0.2-57.4q-6.9-7.3-11.1-15.6z"/>
				<g id="&lt;Group&gt;">
					<path id="&lt;Path&gt;" class="s2" d="m978.4 828l-0.2 57.4-46.2 8.4 0.2-57.4z"/>
				</g>
				<path id="&lt;Path&gt;" class="s5" d="m565.8 451.4l-90.8-52.4 51.1-29.7 105.2 60.7 36.6-21.2-149.1-86.1-216.2 125.6 44 25.3 91.8-53.3 90.8 52.4z"/>
				<path id="&lt;Compound Path&gt;" fill-rule="evenodd" class="s6" d="m831.7 503.3l-129.1 175.9-47.7-27.6 30.1-39.5-87-50.2-67 18.2-46.6-26.9 300.8-76.7zm-74.1 15.6l-109.6 29.7 59.3 34.2z"/>
				<path id="&lt;Compound Path&gt;" fill-rule="evenodd" class="s5" d="m1120.4 703.7q-1 32.9-53 63.1-27.5 16-56.1 23.7-21.8 5.9-49.5 7.1 4.6 15.8 16.6 30.4l-46.2 8.4q-6.9-7.3-11.1-15.6-1.1-1.8-9.9-27.6-30.1-6.8-55.6-21.5-49.3-28.4-48.4-61.3 0.9-32.9 53-63.2 52-30.2 108.9-30.8 56.9-0.6 104.8 27 47.6 27.5 46.5 60.3zm-83.4-39.1q-26.4-15.3-61-14.1-34.7 1.1-71.3 22.4-37.2 21.6-39.3 41.8-2 20.2 23 34.7 9.4 5.4 20.7 8.4-4.6-12.5-13.4-23.1l36.6-7.3q14.1 16.5 19 36.1 18-0.8 35.9-6.4 17.9-5.6 35.7-15.9 36.8-21.4 38.6-41.4 1.9-20-24.5-35.2z"/>
			</g>
			<g id="&lt;Group&gt;">
				<g id="&lt;Group&gt;">
					<path id="&lt;Path&gt;" class="s0" d="m455.7 715.3l1.5 0.9 12.4 7.2z"/>
					<path id="&lt;Path&gt;" class="s0" d="m474.9 750.3c0 3-1.9 5.9-5.9 8.2-7.8 4.5-20.3 4.5-28 0l-8.6-4.9v-0.3l-105.7-61.5-14.8-8.5v-2l-1.2-0.7c-34.8 14.7-83.7 13.1-114.8-5-17-9.9-25.5-22.8-25.5-35.9l-0.1-23.2q0 0.5 0.1 1.1c-0.6-13.6 8.2-27.4 26.1-37.8 34.8-20 91-20.1 125.3-0.1 17.3 10.1 25.8 23.3 25.5 36.6q0-0.4 0-0.8l0.1 23.3c0 4.1-0.8 8.2-2.5 12.2l9.9 5.7 69.4 40.4 33 19.1 3.9 2.3-0.3 0.1 8.3 4.8c3.9 2.3 5.8 5.2 5.8 8.1z"/>
				</g>
				<g id="&lt;Group&gt;">
					<path id="&lt;Path&gt;" class="s7" d="m320.4 572.8c-29.4-16.3-76.9-16.3-106.1 0-29.2 16.3-29 42.7 0.4 59 29.4 16.3 76.9 16.3 106.1 0 29.2-16.3 29-42.7-0.4-59z"/>
					<g id="&lt;Group&gt;">
						<path id="&lt;Path&gt;" class="s1" d="m192.6 595.9l0.1 23.3c0-11.2 7.4-22.5 22.2-31.1 29.5-16.9 76.9-17 106-0.1 14.4 8.4 21.6 19.4 21.7 30.4l-0.1-23.3c0-11-7.2-21.9-21.7-30.3-29.1-16.9-76.5-16.9-105.9 0.1-14.9 8.6-22.3 19.8-22.3 31z"/>
					</g>
					<path id="&lt;Path&gt;" class="s8" d="m320.4 575.3c-29.4-15.7-76.9-15.7-106.1 0-29.2 15.8-29 41.2 0.4 56.9 29.4 15.8 76.9 15.8 106.1 0 29.2-15.7 29-41.1-0.4-56.9z"/>
					<g id="&lt;Group&gt;">
						<path id="&lt;Path&gt;" class="s1" d="m356.1 618.3v-23.2c0 10.9-5.9 21.8-17.8 31v23.2c11.9-9.1 17.9-20.1 17.8-31z"/>
					</g>
					<g id="&lt;Group&gt;">
						<path id="&lt;Path&gt;" class="s2" d="m319.3 636.9l0.1 23.3 7.5 4.3-0.1-23.2z"/>
					</g>
					<g id="&lt;Group&gt;">
						<path id="&lt;Path&gt;" class="s1" d="m179 596l0.1 23.3c0 13 8.5 25.9 25.6 35.8 31 18.1 80 19.7 114.7 5.1l-0.1-23.3c-34.7 14.7-83.6 13.1-114.7-5-17-9.9-25.5-22.9-25.6-35.9z"/>
					</g>
					<g id="&lt;Group&gt;">
						<g id="&lt;Group&gt;">
							<path id="&lt;Path&gt;" class="s1" d="m320.6 644v18.8l14.8 8.6-0.1-18.8z"/>
						</g>
						<g id="&lt;Group&gt;">
							<path id="&lt;Path&gt;" class="s9" d="m335.3 652.6l106.3 61.7 28.2-16.3-5.4-3.2-100.8-58.5z"/>
						</g>
						<g id="&lt;Group&gt;">
							<path id="&lt;Path&gt;" class="s10" d="m335.3 652.6l0.1 18.8 106.2 61.7v-18.8z"/>
						</g>
						<g id="&lt;Group&gt;">
							<path id="&lt;Path&gt;" class="s1" d="m441.1 714.3v18.8l8.6 5-0.1-18.8z"/>
						</g>
						<g id="&lt;Group&gt;">
							<path id="&lt;Path&gt;" class="s1" d="m483.7 729.8l-0.1-18.8c0 3-2 6-5.9 8.2-7.8 4.5-20.4 4.5-28.1 0.1l0.1 18.8c7.7 4.4 20.3 4.4 28.1-0.1 3.9-2.2 5.9-5.2 5.9-8.2z"/>
						</g>
						<g id="&lt;Group&gt;">
							<path id="&lt;Path&gt;" class="s5" d="m463.9 694.8l5.4 3.2-28.2 16.3 8.5 5c7.7 4.4 20.3 4.4 28.1-0.1 7.8-4.5 7.9-11.8 0.2-16.2z"/>
						</g>
						<g id="&lt;Group&gt;">
							<path id="&lt;Path&gt;" class="s5" d="m326.8 640.4l15.3-8.8 6.7-3.9 14.8 8.5-28.3 16.3-14.7-8.5z"/>
						</g>
					</g>
					<path id="&lt;Compound Path&gt;" fill-rule="evenodd" class="s5" d="m338.3 626.1l-6.8-3.9-18.8 10.8 6.6 3.9c-34.7 14.7-83.6 13.1-114.7-5-34.3-20-34-52.5 0.7-72.5 34.7-20.1 90.9-20.2 125.2-0.2 31.3 18.2 33.8 46.8 7.8 66.9zm-17.5-61.3c-29.1-16.9-76.5-16.9-105.9 0.1-29.5 17-29.7 44.5-0.6 61.4 29.1 16.9 76.5 16.9 105.9-0.1 29.5-17 29.7-44.5 0.6-61.4z"/>
					<g id="&lt;Group&gt;">
						<path id="&lt;Path&gt;" class="s5" d="m312.7 633l6.6 3.9 7.5 4.4 18.8-10.9-7.3-4.3-6.8-3.9z"/>
					</g>
				</g>
			</g>
			<g id="&lt;Group&gt;">
				<g id="&lt;Group&gt;">
					<path id="&lt;Path&gt;" class="s1" d="m1016.2 216l-283.3-163.5c-14.6-8.5-27.9-9.2-37.4-3.7l-24.9 14.4c9.6-5.5 22.8-4.7 37.5 3.7l283.2 163.6c29.1 16.7 52.6 57.4 52.5 90.8l-0.5 160.6c0 16.6-5.9 28.2-15.3 33.7l24.8-14.4c9.4-5.5 15.3-17.2 15.4-33.8l0.4-160.5c0.1-33.4-23.4-74.1-52.4-90.9z"/>
					<g id="&lt;Group&gt;">
						<path id="&lt;Path&gt;" class="s5" d="m991.3 230.5c29.1 16.7 52.6 57.4 52.5 90.8l-0.5 160.6c-0.1 33.4-23.7 46.8-52.8 30.1l-232.1-134.1-51.3 18.2 0.2-47.7c-29.1-16.8-52.6-57.4-52.5-90.8l0.5-160.6c0.1-33.4 23.7-46.9 52.8-30.1z"/>
					</g>
				</g>
				<g id="&lt;Group&gt;">
					<path id="&lt;Path&gt;" class="s11" d="m785.2 348.6l30.5 17.6 0.1-35-30.5-17.5z"/>
					<path id="&lt;Path&gt;" class="s11" d="m800.2 172.6q-24.9-14.4-40.2-7.7-15.4 6.7-16.7 28.3l28 20.2q2.9-13.9 10.8-17 7.8-3.1 19.4 3.6 12 6.9 19.1 18.3 7.1 11.4 7 21.6 0 7.4-4 11.2-2.6 2.3-16 7.1-13.4 4.7-17.8 12.1-4.5 7.4-4.5 22.9-0.1 1.5 0 8.4l27.7 15.9q-0.2-14.5 2.1-18.8 2.4-4.2 12.1-7.9 18.7-7 24.4-14.1 5.7-7 5.7-18.6 0.1-20.9-15.4-45.7-15.4-24.6-41.7-39.8z"/>
					<path id="&lt;Path&gt;" class="s11" d="m888.3 408.1l30.4 17.6 0.1-35-30.4-17.5z"/>
					<path id="&lt;Path&gt;" class="s11" d="m887.5 224.8l-0.1 42.9 7.6 97.2 17.2 9.9 8.1-88.1 0.1-42.8z"/>
				</g>
			</g>
			<g id="&lt;Group&gt;">
				<g id="&lt;Group&gt;">
					<g id="&lt;Group&gt;">
						<path id="&lt;Path&gt;" class="s12" d="m463.1 340.2c-1.3 6.4-1.9 12.1-2.2 17.4-0.7 13.6 0.6 34.5 3.4 47.6l6.1-1c0 0 7.1-36 10.4-54.4 0.8-4.7 1.4-8.8 1.7-12 1.7-17.9-9.7-67.8-10.4-71.1v-0.1h-0.1l-24.8-2.8c-11.5 35.9 4.4 44.1 15.9 76.4z"/>
					</g>
				</g>
				<g id="&lt;Group&gt;">
					<g id="&lt;Group&gt;">
						<path id="&lt;Path&gt;" class="s13" d="m450.2 311.6c3.8 8 7.6 16.7 11.8 28.6-2.8 7.6-2.9 47.9-0.4 59.4 4.5 0.7 8.8 0.6 13 0 0.9-4.7 7.8-55.1 8.1-58.2 1.7-17.9-9.9-71.4-10.6-74.7v-0.1h-0.1l-24.8-2.8c-7.3 22.6-3.6 34.2 3 47.8z"/>
					</g>
				</g>
				<g id="&lt;Group&gt;">
					<g id="&lt;Group&gt;">
						<path id="&lt;Path&gt;" class="s12" d="m430.2 410.1l-10.7-17.2c0 0 11.1-19.5 20-32.5 2.1-3.1 4.1-5.8 5.8-7.8 12.3-14.4 18.7-86.8 18.7-86.8h-20.3c-15.8 16.5-11.8 39.3-12.3 61.8-0.2 7.7-2.4 15.3-6.1 21.8q-1.1 2-2.1 4c-4.6 9.6-7.4 20.8-9.9 39.3l-5 6.9z"/>
					</g>
				</g>
				<g id="&lt;Group&gt;">
					<g id="&lt;Group&gt;">
						<path id="&lt;Path&gt;" class="s14" d="m410.8 385.5c4 2.9 8.5 4.5 13.4 5.4 2.1-3.1 23.5-41.9 25.6-45.4 10-16 15.7-80 15.7-80l-20.9 0.3h-0.9c-15.3 16-12.1 37.8-12.3 59.5-0.1 8.9-3.5 14.3-7.3 21.9-10.7 21.5-12.8 37.2-13.3 38.3z"/>
					</g>
				</g>
				<g id="&lt;Group&gt;">
					<g id="&lt;Group&gt;">
						<path id="&lt;Path&gt;" class="s15" d="m470.8 403.3c9.5 4 19.9 3.4 20.7 13l-29.7-0.7q-0.6-6.2 1.6-12.2z"/>
					</g>
				</g>
				<g id="&lt;Group&gt;">
					<g id="&lt;Group&gt;">
						<path id="&lt;Path&gt;" class="s15" d="m420.1 392.9c7.2 7.9 17.3 12.8 14.4 22l-27.4-14.9c0.9-4.7 3.1-7.8 6.3-9.6z"/>
					</g>
				</g>
				<g id="&lt;Group&gt;">
					<g id="&lt;Group&gt;">
						<path id="&lt;Path&gt;" class="s16" d="m508.3 206.3c0 0-6.4 28.7-14.1 30.8-3.5 0.9-8 0.1-12.2-1.3-7.2-2.5-13.8-6.8-14.1-8l-7.3-22.2c4.2 1.8 28.2 15.5 30.2 16.8 3.1-4.8 10-17.1 10.2-18.1 0 0-5-4.1-3.6-6 1.1-1.7 4.4 1.5 4.9 0.9 0.6-0.7 2.1-3.9 5.4-1.6 4.3 3 0.6 8.7 0.6 8.7z"/>
					</g>
				</g>
				<g id="&lt;Group&gt;">
					<g id="&lt;Group&gt;">
						<path id="&lt;Path&gt;" class="s6" d="m486.7 219.3c-0.5 5.8-3.9 13.6-4.2 17.2-7.3-2.4-15.9-3.2-16.2-4.4l-5.7-26.5c4.2 1.8 17.7 8.7 26.1 13.7z"/>
					</g>
				</g>
				<g id="&lt;Group&gt;">
					<g id="&lt;Group&gt;">
						<path id="&lt;Path&gt;" class="s17" d="m531.6 240.2l9.5 5c3.5 1.9 7.9 0.6 9.7-2.9l3.1-5.7c1.8-3.5 0.5-7.9-3-9.7l-9.5-5.1z"/>
					</g>
					<g id="&lt;Group&gt;">
						<path id="&lt;Path&gt;" class="s18" d="m554.9 234.6l-5.1 9.7c-1.3 2.4-4.3 3.3-6.7 2l-0.5-0.3q0.2-0.2 0.4-0.5l5.1-9.7c1.3-2.4 0.4-5.4-2-6.7l-6.7-3.5 2-3.8 11.5 6.1c2.4 1.3 3.3 4.3 2 6.7z"/>
					</g>
					<g id="&lt;Group&gt;">
						<g id="&lt;Group&gt;">
							<path id="&lt;Path&gt;" class="s16" d="m428.1 189.2l-10.5-12-4-4.6-4-4.8c-1.1-1.2-0.1-3.2 1.6-3l6.6 0.6 6.9 0.7 15.2 1.2 0.8 0.1-0.2 0.2 2.4 1.3-11.8 20.5-2.4-1.2z"/>
						</g>
						<g id="&lt;Group&gt;">
							<path id="&lt;Path&gt;" class="s14" d="m424.7 166.1l-6.9-0.7-6.6-0.6c-1.7-0.2-2.7 1.8-1.6 3l4 4.8 4 4.6c1.9-1.8 3.6-3.8 4.9-6.1q1.4-2.4 2.2-5z"/>
						</g>
						<g id="&lt;Group&gt;">
							<path id="&lt;Path&gt;" class="s19" d="m428.2 189.3l10.1 5.2q0.1 0 0.2 0l96.7 49.3 3.1-5.4-105.4-53.8c-0.6-0.3-3.2 0-4.1 1.5-0.9 1.5-1.1 2.9-0.6 3.2z"/>
						</g>
						<g id="&lt;Group&gt;">
							<path id="&lt;Path&gt;" class="s18" d="m432.9 184.6l105.4 53.8 3.2-5.5-105.5-53.8q0 0 0 0c-0.5-0.2-3.2 0-4 1.5-0.9 1.5 0.3 3.7 0.9 4z"/>
						</g>
						<g id="&lt;Group&gt;">
							<path id="&lt;Path&gt;" class="s10" d="m436 179.1l105.5 53.8 3.2-5.4-105.6-53.9q0 0.1 0.1 0.1c-0.6-0.3-3.2-0.1-4.1 1.4-0.8 1.5 0.3 3.6 0.9 4z"/>
						</g>
						<g id="&lt;Group&gt;">
							<path id="&lt;Path&gt;" class="s17" d="m439.1 173.6l105.6 53.9 3.1-5.5-96.7-49.3q-0.1 0-0.1-0.1l-10.1-5.1c-0.6-0.3-1.7 0.7-2.6 2.2-0.8 1.4 0.2 3.5 0.8 3.9z"/>
						</g>
						<g id="&lt;Group&gt;">
							<path id="&lt;Path&gt;" class="s14" d="m539.9 215.8c1.1 0.5 1.7 1.8 1.3 2.9l2 1c0.8-0.9 2.1-1.2 3.3-0.6 1.1 0.6 1.6 1.8 1.3 2.9l-0.2 0.5q0 0 0 0l-12.1 20.9q0 0 0 0l-0.3 0.4c-0.8 0.9-2.2 1.1-3.3 0.6-1.2-0.6-1.7-1.8-1.3-2.9l-2-1c-0.8 0.8-2.2 1.1-3.3 0.5-1.1-0.6-1.6-1.8-1.3-2.9l-1.9-1c-0.8 0.9-2.2 1.2-3.3 0.6-1.2-0.6-1.7-1.8-1.3-2.9l-0.1-0.1-9.3-4.7 12.6-21.8 9.3 4.8h0.1c0.8-0.9 2.1-1.1 3.3-0.6 1.1 0.6 1.6 1.8 1.3 2.9l1.9 1c0.8-0.8 2.2-1.1 3.3-0.5z"/>
						</g>
						<g id="&lt;Group&gt;">
							<path id="&lt;Path&gt;" class="s20" d="m525.3 241c-1.1-0.6-1.6-1.8-1.3-2.9l-1.9-1c-0.8 0.9-2.2 1.2-3.3 0.6-1.2-0.6-1.7-1.8-1.3-2.9l-0.1-0.1-9.3-4.7 0.7-1.3 9.4 4.8c-0.3 1.1 0.2 2.3 1.3 2.9 1.1 0.6 2.5 0.3 3.3-0.6l2 1c-0.4 1.1 0.1 2.4 1.3 2.9 1.1 0.6 2.5 0.3 3.3-0.5l1.9 1c-0.3 1.1 0.2 2.3 1.3 2.9 1.1 0.5 2.5 0.3 3.3-0.6h0.1l-0.5 0.9-0.3 0.4c-0.8 0.9-2.2 1.1-3.3 0.6-1.2-0.6-1.7-1.8-1.3-2.9l-2-1.1c-0.8 0.9-2.2 1.2-3.3 0.6z"/>
						</g>
					</g>
					<g id="&lt;Group&gt;">
						<path id="&lt;Path&gt;" class="s20" d="m524.8 236.9l11.8-20.5-1.8-1-11.9 20.5z"/>
					</g>
					<g id="&lt;Group&gt;">
						<path id="&lt;Path&gt;" class="s20" d="m518.3 233.5l11.8-20.5-1.8-0.9-11.9 20.4z"/>
					</g>
					<g id="&lt;Group&gt;">
						<path id="&lt;Path&gt;" class="s20" d="m531.2 240.2l11.9-20.5-1.9-0.9-11.8 20.4z"/>
					</g>
				</g>
				<g id="&lt;Group&gt;">
					<g id="&lt;Group&gt;">
						<path id="&lt;Path&gt;" class="s21" d="m431.6 225c0.2 12.8 3.4 35 4.6 43 0.1 1.2 0.8 2.2 1.7 2.8 0.5 0.3 1.1 0.6 1.7 0.7 5.7 0.8 11.3 1.3 16.8 1.3 4.9 0 9.7-0.4 14.4-1.2 1.8-0.3 3.2-1.8 3.4-3.6 0.7-6.1-1.2-19.3-0.9-32.2 0.2-8.2-2.4-29.1-17.6-32.4l-8.9-0.1c-10 2.6-14.2 10.3-14.9 15.7-0.2 1.5-0.3 3.6-0.3 6z"/>
					</g>
				</g>
				<g id="&lt;Group&gt;">
					<g id="&lt;Group&gt;">
						<g id="&lt;Group&gt;">
							<path id="&lt;Path&gt;" class="s14" d="m459.2 171.4c-0.5-0.3-1.2-0.4-1.6-0.8-0.4-0.4-0.4-0.8-0.9-1.2-1.3-1.1-3-0.8-4.6-0.4-2.5 0.6-5.1 1.3-6.9 3.3-0.7 0.9-1 1.8-2 2.3-0.5 0.3-1 0.2-1.5 0.3-3.9 1-6.9 3.8-5.9 8.1 0.3 1.2 1.1 1.5 1.3 2.9 0.6 2.9-1.7 6 2 8 3.8 2.1 7.7 2.8 12.2 1.1 5.1-1.9 7.5-8.6 9.1-13.6 1.6-1.5 2.8-3.2 2.5-5.5-0.3-2.2-1.8-3.6-3.7-4.5z"/>
						</g>
					</g>
					<g id="&lt;Group&gt;">
						<g id="&lt;Group&gt;">
							<path id="&lt;Path&gt;" class="s16" d="m445.4 203.8c3.8 3.7 7.3 4.5 10.5 0l-0.9-7.2-0.3-3.1h-8.4l-0.1 1.9z"/>
						</g>
					</g>
					<g id="&lt;Group&gt;">
						<g id="&lt;Group&gt;">
							<path id="&lt;Path&gt;" class="s22" d="m446 196.7c2.1 2.5 7.8 3.2 9.3 2.2l-0.6-5.4-8.4-3.5z"/>
						</g>
					</g>
					<g id="&lt;Group&gt;">
						<g id="&lt;Group&gt;">
							<path id="&lt;Path&gt;" class="s16" d="m458.9 178.9c1.6 4.3 3.1 13.9-0.6 17.5-2.3 2.2-10.8 1.3-12.5-4.8-2-1.5-3.5-5.1-1.6-6.7 1.3-1.2 3 1.9 5.3 1.4 0.9-0.2-1.8-6.1 1-7.2 2.7-1 5.6 1.2 8.4-0.2z"/>
						</g>
					</g>
				</g>
				<g id="&lt;Group&gt;">
					<g id="&lt;Group&gt;">
						<g id="&lt;Group&gt;">
							<path id="&lt;Path&gt;" class="s16" d="m443.8 235.4c0 0 8 9.6 15.2 14.9 1.7 1.3 3.4 2.3 4.9 2.8 10.6 4.1 35 0.9 35 0.9 7.7 3.9 17.4 1.6 19.3-1.3 3.4-5.2-9.2-0.3-10.4-3.4 0 0 5.8-3.1 4.1-5.4-1.6-2.3-11.7 3.8-11.7 3.8-10.2-4.2-20.4-6.5-30.1-7.2q-1.2-1.6-2.4-3.2c-5.8-7.7-12.5-14.8-21.7-19.4-4.5 5.8-4.3 11.6-2.2 17.5z"/>
						</g>
					</g>
					<g id="&lt;Group&gt;">
						<g id="&lt;Group&gt;">
							<path id="&lt;Path&gt;" class="s6" d="m456.7 250.6l12.7-14.1c-5.9-7.7-17-24.7-24.8-17.9-10.3 9 4.9 26.7 12.1 32z"/>
						</g>
					</g>
				</g>
			</g>
			<g id="&lt;Group&gt;">
				<path id="&lt;Path&gt;" class="s0" d="m1205.9 625c0 3.8-26.8 6.9-59.8 6.9-33 0-59.7-3.1-59.7-6.9 0-3.8 26.7-6.8 59.7-6.8 33 0 59.8 3 59.8 6.8z"/>
				<path id="&lt;Path&gt;" class="s23" d="m1190 507.7q1.4-0.3 2.8-0.6c-12 9.8-20.4 23.8-24.9 38.4 6.1-6.8 14.6-13.1 23.6-15.7-10.5 6.4-19.7 21.1-19.3 34.1-10.9 0-31-0.6-49.5-0.1-0.1-14.5-10-28.3-23.5-33.3 7.8-0.8 16 1.5 22.4 6.2-4.4-15.4-17.5-27.6-31.6-34.6 15.4 5.2 30.3 14.6 38.6 29-1.1-30.7-14.7-46.7-34.3-71.1q-0.3-0.3-0.5-0.6c18 8.1 37.7 41.6 44.5 62.2-1.3-39-1.2-68.5 18.9-97.9-10.1 30.9-9.9 61.6-8.1 93.4 7-25.7 24.3-44.2 44.1-54.1-17.2 22.6-31.7 32.7-33.8 65.5 7.6-10.7 18.2-17.7 30.6-20.8z"/>
				<g id="&lt;Group&gt;" style="mix-blend-mode: multiply">
					<path id="&lt;Path&gt;" class="s24" d="m1137.7 552.3c0 1-5.7 0-5.7 1-8-36.2-33.9-48.1-38.8-50.1 14.3 5.4 27.7 14.5 35.4 27.9 0-0.1 6.7 12.6 9.1 21.2z"/>
					<path id="&lt;Path&gt;" class="s24" d="m1143.5 553.3c0.1 1.9-4.3-0.7-4.3 1.3 0.3-32.5-25.8-84.8-44.9-94.6q-0.3-0.3-0.5-0.6c18 8.1 37.7 41.6 44.5 62.2 1.3 5.2 5.1 17.3 5.2 31.7z"/>
					<path id="&lt;Path&gt;" class="s24" d="m1151.1 552.3c-0.8 2.1-5.1 0.1-5.7 2.3-2.9-44.9-6.6-76.9 6.5-122q2.4-4.3 5.3-8.9c-10.1 30.9-9.9 61.6-8.1 93.4 0.8 22.3 1.5 25 2 35.2z"/>
					<path id="&lt;Path&gt;" class="s24" d="m1185.6 472.5c-15.2 18.7-23.9 27.4-26.2 56-2.3 14.8-1.3 14.8-1.1 23.8-1 1.2-3.9 1.6-4.8-0.3-3.1-47.1 16.1-63.2 34.1-85.9q0.7-0.4 1.4-0.8 0.7-0.4 1.3-0.8 0.1 0 0.2-0.1 0.6-0.3 1.3-0.7 0.7-0.4 1.4-0.7c-1.1 1.2-3.9 4.5-7.6 9.5z"/>
					<path id="&lt;Path&gt;" class="s24" d="m1192.8 507.1q-0.3 0.2-0.5 0.4-0.3 0.3-0.6 0.5-0.5 0.4-1 0.9-0.6 0.5-1.1 0.9-0.5 0.5-1 1-0.5 0.5-1 1-0.5 0.5-0.9 0.9-0.1 0.2-0.3 0.3-0.8 0.9-1.7 1.9-0.5 0.6-1 1.2-0.5 0.6-0.9 1.1-0.5 0.6-0.9 1.2-0.5 0.6-0.9 1.2-0.5 0.6-0.9 1.2-0.4 0.5-0.7 1-0.1 0.2-0.2 0.3-0.4 0.6-0.8 1.1-0.4 0.7-0.8 1.3-0.4 0.6-0.8 1.3-0.4 0.6-0.8 1.2-0.7 1.2-1.3 2.5c-2 3.5-3.7 7.2-5 10.8q-1 2.7-1.8 5.2c0.4-0.4-1.4 5.6-2.2 8.4-1.5 1.4-4.7-1.4-5.9 0 2.5-13.2 15-36.8 28-45.6q0.7-0.2 1.5-0.4 0.3-0.1 0.7-0.2 1.4-0.3 2.8-0.6z"/>
					<path id="&lt;Path&gt;" class="s24" d="m1169.8 562.9c-10.4 0-29.3-0.5-47.1-0.1q0 0.5 0 1c18.5-0.5 38.6 0.1 49.5 0.1-0.4-13 8.8-27.7 19.3-34.1-2.6 0.7-5.3 1.9-8 3.3-8 7.4-14.1 19.3-13.7 29.8z"/>
					<path id="&lt;Path&gt;" class="s24" d="m1127.7 553.8c-4.1-15.7-12.7-20.7-14.9-21.7q0.1 0 0.2 0.1c3.1 1 6 2.6 8.6 4.5q-0.1 0-0.1-0.1c3.4 2.9 6.8 7.7 8.6 15.7 4.4 5.1-1 2.9-2.4 1.5z"/>
				</g>
				<path id="&lt;Path&gt;" class="s5" d="m1191.5 590.1c0 8.8-2.5 17.1-6.8 24q-1.5 2.4-3.2 4.6-2.2 2.7-4.8 5c-5.4 0.5-10.8 0.8-16.1 1-15.5 0.7-30.5 0.4-45-1-1.7-1.6-3.3-3.3-4.8-5.1-1.1-1.4-2.2-2.9-3.2-4.5-4.3-6.9-6.9-15.2-6.9-24 0-7.7 2-15 5.4-21.4q1.2-2.2 2.7-4.2 1.4-2.1 3-3.9c1-1.3 2.2-2.5 3.4-3.6h61.9c2.4 2.2 4.6 4.7 6.4 7.5q1.5 2 2.7 4.2c3.4 6.4 5.3 13.7 5.3 21.4z"/>
				<path id="&lt;Path&gt;" class="s11" d="m1186.1 568.7h-80q1.2-2.2 2.7-4.2h74.7q1.5 2 2.6 4.2z"/>
				<path id="&lt;Path&gt;" class="s11" d="m1184.7 614.1q-1.5 2.4-3.2 4.6c-23.3 0.7-46.8 0.7-70.7-0.1-1.1-1.4-2.2-2.9-3.2-4.5 26.1 0.9 51.8 1 77.1 0z"/>
				<path id="&lt;Path&gt;" class="s5" d="m1176.5 557h-60.7c-1.3 0-2.4-1.1-2.4-2.4 0-1.3 1.1-2.3 2.4-2.3h60.7c1.3 0 2.4 1 2.4 2.3 0 1.3-1.1 2.4-2.4 2.4z"/>
				<path id="&lt;Path&gt;" class="s11" d="m1118.7 558.5c1.2 0 2.2 1 2.2 2.2 0 1.2-1 2.2-2.2 2.2-1.2 0-2.2-1-2.2-2.2 0-1.2 1-2.2 2.2-2.2z"/>
				<path id="&lt;Path&gt;" class="s11" d="m1126.9 558.5c1.2 0 2.2 1 2.2 2.2 0 1.2-1 2.2-2.2 2.2-1.3 0-2.2-1-2.2-2.2 0-1.2 0.9-2.2 2.2-2.2z"/>
				<path id="&lt;Path&gt;" class="s11" d="m1135 558.5c1.2 0 2.2 1 2.2 2.2 0 1.2-1 2.2-2.2 2.2-1.2 0-2.2-1-2.2-2.2 0-1.2 1-2.2 2.2-2.2z"/>
				<path id="&lt;Path&gt;" class="s11" d="m1143.1 558.5c1.3 0 2.3 1 2.3 2.2 0 1.2-1 2.2-2.3 2.2-1.2 0-2.2-1-2.2-2.2 0-1.2 1-2.2 2.2-2.2z"/>
				<path id="&lt;Path&gt;" class="s11" d="m1151.3 558.5c1.2 0 2.2 1 2.2 2.2 0 1.2-1 2.2-2.2 2.2-1.2 0-2.2-1-2.2-2.2 0-1.2 1-2.2 2.2-2.2z"/>
				<path id="&lt;Path&gt;" class="s11" d="m1159.4 558.5c1.2 0 2.2 1 2.2 2.2 0 1.2-1 2.2-2.2 2.2-1.2 0-2.2-1-2.2-2.2 0-1.2 1-2.2 2.2-2.2z"/>
				<path id="&lt;Path&gt;" class="s11" d="m1167.6 558.5c1.2 0 2.2 1 2.2 2.2 0 1.2-1 2.2-2.2 2.2-1.3 0-2.2-1-2.2-2.2 0-1.2 0.9-2.2 2.2-2.2z"/>
				<path id="&lt;Path&gt;" class="s11" d="m1175.7 558.5c1.2 0 2.2 1 2.2 2.2 0 1.2-1 2.2-2.2 2.2-1.2 0-2.2-1-2.2-2.2 0-1.2 1-2.2 2.2-2.2z"/>
				<path id="&lt;Path&gt;" class="s25" d="m1191.5 590.1c0 13.3-5.7 25.3-14.8 33.6-5.4 0.5-10.8 0.8-16.1 1q5.7-4.8 9.7-10.3c16.5-22.2-0.5-53.8-28.2-53.8h-30.3c1-1.3 2.2-2.5 3.4-3.6h61.9c2.4 2.2 4.6 4.7 6.4 7.5q1.5 2 2.7 4.2c3.4 6.4 5.3 13.7 5.3 21.4z"/>
			</g>
			<g id="&lt;Group&gt;">
				<path id="&lt;Path&gt;" class="s0" d="m263 508.8c0 3.4-23.5 6.1-52.5 6.1-28.9 0-52.4-2.7-52.4-6.1 0-3.3 23.5-6 52.4-6 29 0 52.5 2.7 52.5 6z"/>
				<path id="&lt;Path&gt;" class="s23" d="m249.1 405.9q1.1-0.3 2.4-0.5c-10.5 8.5-17.9 20.9-21.8 33.7 5.3-6 12.8-11.5 20.7-13.8-9.3 5.5-17.3 18.5-17 29.9-9.5 0-27.2-0.5-43.4-0.1-0.1-12.7-8.8-24.9-20.7-29.2 6.9-0.7 14.1 1.3 19.7 5.4-3.9-13.5-15.3-24.2-27.7-30.3 13.5 4.6 26.6 12.8 33.8 25.4-0.9-26.9-12.9-41-30.1-62.4q-0.2-0.3-0.4-0.5c15.8 7.1 33.1 36.5 39 54.5-1.1-34.1-1-60.1 16.7-85.8-9 27.1-8.8 54-7.2 81.9 6.2-22.5 21.3-38.7 38.7-47.4-15 19.8-27.8 28.6-29.6 57.4 6.6-9.4 15.9-15.5 26.9-18.2z"/>
				<g id="&lt;Group&gt;" style="mix-blend-mode: multiply">
					<path id="&lt;Path&gt;" class="s24" d="m203.1 445c0.1 0.9-5 0-5 0.9-7-31.8-29.7-42.2-34-43.9 12.5 4.7 24.3 12.6 31 24.4 0-0.1 5.9 11.1 8 18.6z"/>
					<path id="&lt;Path&gt;" class="s24" d="m208.2 445.9c0.1 1.7-3.8-0.6-3.8 1.1 0.4-28.5-22.6-74.4-39.4-83q-0.2-0.3-0.4-0.5c15.8 7.1 33.1 36.5 39 54.5 1.2 4.6 4.6 15.3 4.6 27.9z"/>
					<path id="&lt;Path&gt;" class="s24" d="m214.9 445c-0.7 1.8-4.5 0.1-5.1 2.1-2.5-39.5-5.7-67.6 5.8-107.1q2.1-3.8 4.7-7.8c-9 27.1-8.8 54-7.2 81.9 0.7 19.6 1.3 22 1.8 30.9z"/>
					<path id="&lt;Path&gt;" class="s24" d="m245.2 375c-13.4 16.4-21 24-23 49.1-2 13-1.2 13-1 20.9-0.8 1-3.4 1.4-4.2-0.3-2.7-41.3 14.2-55.4 29.9-75.3q0.6-0.4 1.2-0.8 0.6-0.3 1.2-0.6 0.1-0.1 0.1-0.1 0.6-0.3 1.2-0.6 0.6-0.3 1.2-0.6c-0.9 1.1-3.4 3.9-6.6 8.3z"/>
					<path id="&lt;Path&gt;" class="s24" d="m251.5 405.4q-0.3 0.1-0.5 0.3-0.2 0.2-0.5 0.4-0.5 0.4-0.9 0.8-0.5 0.4-0.9 0.9-0.5 0.4-0.9 0.8-0.5 0.4-0.9 0.9-0.4 0.4-0.8 0.8-0.1 0.1-0.2 0.2-0.8 0.8-1.5 1.7-0.5 0.5-0.9 1.1-0.4 0.5-0.8 1-0.4 0.5-0.8 1-0.4 0.5-0.8 1-0.4 0.5-0.8 1.1-0.3 0.4-0.6 0.9-0.1 0.1-0.2 0.2-0.3 0.5-0.6 1-0.4 0.6-0.8 1.1-0.3 0.6-0.6 1.1-0.4 0.6-0.7 1.1-0.6 1.1-1.2 2.2c-1.7 3.1-3.2 6.3-4.4 9.5q-0.9 2.3-1.5 4.6c0.3-0.4-1.3 4.8-2 7.3-1.3 1.3-4.1-1.2-5.2 0 2.2-11.5 13.2-32.3 24.6-40q0.6-0.1 1.3-0.3 0.3-0.1 0.7-0.2 1.1-0.3 2.4-0.5z"/>
					<path id="&lt;Path&gt;" class="s24" d="m231.3 454.3c-9.2 0-25.7-0.4-41.4-0.1q0.1 0.4 0.1 0.9c16.2-0.4 33.9 0 43.4 0-0.3-11.3 7.7-24.3 17-29.8-2.4 0.6-4.8 1.6-7.1 2.9-7 6.5-12.3 16.9-12 26.1z"/>
					<path id="&lt;Path&gt;" class="s24" d="m194.3 446.3c-3.6-13.8-11.1-18.2-13.1-19q0.1 0 0.2 0c2.7 1 5.3 2.3 7.6 4q0 0 0 0c2.9 2.5 5.9 6.7 7.5 13.7 3.8 4.5-0.9 2.6-2.2 1.3z"/>
				</g>
				<path id="&lt;Path&gt;" class="s5" d="m250.4 478.2c0 7.7-2.3 14.9-6.1 21q-1.2 2.1-2.8 4-1.9 2.4-4.2 4.5c-4.7 0.4-9.4 0.7-14.1 0.9-13.5 0.6-26.7 0.3-39.4-0.9-1.5-1.4-3-2.9-4.2-4.5q-1.6-1.9-2.9-4c-3.8-6.1-6-13.3-6-21 0-6.8 1.7-13.2 4.7-18.8q1.1-1.9 2.3-3.7 1.3-1.8 2.7-3.4 1.4-1.7 3-3.2h54.3c2.1 2 4 4.2 5.6 6.6q1.3 1.8 2.3 3.7c3.1 5.6 4.8 12 4.8 18.8z"/>
				<path id="&lt;Path&gt;" class="s11" d="m245.6 459.4h-70.2q1.1-1.9 2.3-3.7h65.6q1.3 1.8 2.3 3.7z"/>
				<path id="&lt;Path&gt;" class="s11" d="m244.3 499.2q-1.2 2.1-2.8 4c-20.4 0.7-41 0.7-61.9 0q-1.6-1.9-2.9-4c22.9 0.9 45.5 0.9 67.6 0z"/>
				<path id="&lt;Path&gt;" class="s5" d="m237.2 449.1h-53.3c-1.2 0-2.1-0.9-2.1-2 0-1.2 0.9-2.1 2.1-2.1h53.3c1.1 0 2 0.9 2 2.1 0 1.1-0.9 2-2 2z"/>
				<path id="&lt;Path&gt;" class="s11" d="m186.5 450.5c1.1 0 1.9 0.8 1.9 1.9 0 1.1-0.8 1.9-1.9 1.9-1.1 0-2-0.8-2-1.9 0-1.1 0.9-1.9 2-1.9z"/>
				<path id="&lt;Path&gt;" class="s11" d="m193.6 450.5c1.1 0 2 0.8 2 1.9 0 1.1-0.9 1.9-2 1.9-1 0-1.9-0.8-1.9-1.9 0-1.1 0.9-1.9 1.9-1.9z"/>
				<path id="&lt;Path&gt;" class="s11" d="m200.8 450.5c1 0 1.9 0.8 1.9 1.9 0 1.1-0.9 1.9-1.9 1.9-1.1 0-2-0.8-2-1.9 0-1.1 0.9-1.9 2-1.9z"/>
				<path id="&lt;Path&gt;" class="s11" d="m207.9 450.5c1.1 0 1.9 0.8 1.9 1.9 0 1.1-0.8 1.9-1.9 1.9-1.1 0-1.9-0.8-1.9-1.9 0-1.1 0.8-1.9 1.9-1.9z"/>
				<path id="&lt;Path&gt;" class="s11" d="m215.1 450.5c1 0 1.9 0.8 1.9 1.9 0 1.1-0.9 1.9-1.9 1.9-1.1 0-2-0.8-2-1.9 0-1.1 0.9-1.9 2-1.9z"/>
				<path id="&lt;Path&gt;" class="s11" d="m222.2 450.5c1.1 0 1.9 0.8 1.9 1.9 0 1.1-0.8 1.9-1.9 1.9-1.1 0-1.9-0.8-1.9-1.9 0-1.1 0.8-1.9 1.9-1.9z"/>
				<path id="&lt;Path&gt;" class="s11" d="m229.3 450.5c1.1 0 2 0.8 2 1.9 0 1.1-0.9 1.9-2 1.9-1 0-1.9-0.8-1.9-1.9 0-1.1 0.9-1.9 1.9-1.9z"/>
				<path id="&lt;Path&gt;" class="s11" d="m236.5 450.5c1 0 1.9 0.8 1.9 1.9 0 1.1-0.9 1.9-1.9 1.9-1.1 0-2-0.8-2-1.9 0-1.1 0.9-1.9 2-1.9z"/>
				<path id="&lt;Path&gt;" class="s25" d="m250.4 478.2c0 11.7-5.1 22.2-13.1 29.5-4.7 0.4-9.4 0.7-14.1 0.9q5-4.3 8.5-9.1c14.5-19.5-0.4-47.2-24.7-47.2h-26.6q1.4-1.7 3-3.2h54.3c2.1 2 4 4.2 5.6 6.6q1.3 1.8 2.3 3.7c3.1 5.6 4.8 12 4.8 18.8z"/>
			</g>
			<g id="&lt;Group&gt;">
				<g id="&lt;Group&gt;">
					<path id="&lt;Path&gt;" class="s26" d="m739.6 821.9l-0.1 22.3c0.1-4.7-3.1-9.4-9.1-12.8q-1.3-0.8-2.9-1.5c-13.5-6.1-33-4.7-43.4 3.1-4.4 3.3-6.5 7.1-6.5 11v-22.3c0-3.9 2.2-7.7 6.5-11 10.5-7.8 30-9.2 43.5-3.1q1.5 0.7 2.9 1.5c6 3.5 9.1 8.1 9.1 12.8z"/>
				</g>
				<g id="&lt;Group&gt;">
					<path id="&lt;Path&gt;" class="s26" d="m686.9 789.8q-0.1-0.4-0.1-0.8l-0.1 22.3q0 0.4 0.1 0.8l0.4 1.9 0.1-22.3z"/>
					<g id="&lt;Group&gt;">
						<path id="&lt;Path&gt;" class="s26" d="m740.9 817.2v-22.3c0 1.3-0.7 2.6-2.2 3.7l-2.3 1.7-0.1 22.3 2.4-1.7c1.4-1.1 2.2-2.4 2.2-3.7z"/>
						<path id="&lt;Path&gt;" class="s26" d="m748.3 818.6l-3.8 0.3c-0.6 2.4-1.8 4.8-3.7 7.1v11.5c-3.3 0.8-7.2 0.5-10.1-0.8l-3.1-1.4c-3.5 1.5-7.3 2.7-11.3 3.5v4.5c-1.2 2.1-4.4 3.8-8.6 4.1-3.3 0.2-6.4-0.5-8.6-1.7-1.6-0.9-2.7-2.2-3-3.5l-0.5-2.3c-4.2-0.3-8.3-1-12.2-2.1l-2 1.5c-3.4 2.5-9.7 3-14.2 1.2v-10.4q-2.6-2.1-4.4-4.4v-21.2l-2.6-1.2q-0.5-0.2-0.9-0.5c-2-1.2-3.1-2.7-3.1-4.3l-0.1 22.3c0 1 0.5 2.1 1.4 3-3.1 0.2-6.1-0.5-8.2-1.7-1.6-0.9-2.7-2.2-3-3.5q-0.1-0.4-0.1-0.8v22.3q0 0.4 0 0.7c0.4 1.4 1.4 2.6 3 3.6 2.2 1.2 5.4 1.9 8.7 1.7l3.2-0.2q0.7 1 1.6 2.1v9.8c0 1.6 1 3.1 3 4.3q0.5 0.3 1 0.5c4.5 2.1 11.1 1.6 14.6-1l2-1.5c3.9 1.1 8.1 1.8 12.3 2.1l0.4 2.2c0.3 1.4 1.4 2.6 3 3.6 2.2 1.2 5.4 1.9 8.7 1.7 5.2-0.4 9.1-3 9.1-6v-2.7c3.8-0.9 7.4-2 10.8-3.4l3 1.4c4.5 2 11.1 1.5 14.6-1.1 1.5-1.1 2.2-2.4 2.2-3.7v-13.2l0.9-0.1c5.2-0.4 9-2.9 9.1-5.9v-22.3c0 3-3.8 5.5-9.1 5.9z"/>
					</g>
				</g>
				<g id="&lt;Group&gt;">
					<g id="&lt;Group&gt;">
						<path id="&lt;Path&gt;" class="s26" d="m634.1 876.6l-2.7 0.2c-0.4 1.7-1.3 3.4-2.6 5v8.1c-2.3 0.5-5 0.3-7.1-0.6l-2.1-1c-2.5 1.1-5.1 1.9-8 2.5v3.1c-0.8 1.5-3.1 2.7-6 2.9-2.3 0.2-4.5-0.3-6.1-1.2-1.1-0.6-1.8-1.5-2.1-2.5l-0.3-1.5c-2.9-0.3-5.8-0.8-8.6-1.5l-1.4 1c-2.4 1.8-6.8 2.2-9.9 0.9v-7.3q-1.9-1.5-3.2-3.1l0.1-14.9-1.8-0.8q-0.4-0.2-0.7-0.4c-1.5-0.8-2.2-1.9-2.2-3v15.6c0 0.8 0.3 1.5 0.9 2.2-2.2 0.1-4.3-0.4-5.7-1.3-1.2-0.6-1.9-1.5-2.1-2.4q-0.1-0.3-0.1-0.6v15.7q0 0.3 0 0.5c0.2 1 1 1.9 2.1 2.5 1.6 0.9 3.8 1.4 6.1 1.2l2.3-0.2q0.5 0.8 1.1 1.6l-0.1 6.9c0 1.1 0.8 2.1 2.2 3q0.3 0.2 0.7 0.3c3.2 1.5 7.8 1.1 10.2-0.7l1.4-1.1c2.8 0.8 5.7 1.3 8.7 1.5l0.3 1.6c0.2 1 1 1.8 2.1 2.5 1.5 0.9 3.7 1.3 6.1 1.2 3.7-0.3 6.4-2.1 6.4-4.2v-1.9c2.6-0.6 5.2-1.4 7.5-2.4l2.2 1c3.2 1.4 7.7 1.1 10.2-0.8 1-0.8 1.5-1.7 1.5-2.6l0.1-9.3h0.6c3.7-0.3 6.3-2.1 6.4-4.2v-15.7c0 2.1-2.7 4-6.4 4.2z"/>
					</g>
				</g>
				<g id="&lt;Group&gt;">
					<path id="&lt;Path&gt;" class="s26" d="m530.4 782.4q-0.1-0.4-0.1-0.7v17.9q0 0.3 0 0.7l0.4 1.5v-17.9z"/>
					<g id="&lt;Group&gt;">
						<path id="&lt;Path&gt;" class="s26" d="m573.7 804.4l0.1-17.9c0 1-0.6 2.1-1.8 2.9l-1.9 1.4v17.9l1.9-1.4c1.1-0.9 1.7-1.9 1.7-2.9z"/>
						<path id="&lt;Path&gt;" class="s26" d="m579.7 805.5l-3.1 0.2c-0.4 2-1.4 3.9-2.9 5.7l-0.1 9.3c-2.6 0.6-5.7 0.4-8.1-0.7l-2.4-1.1c-2.8 1.2-5.9 2.1-9.1 2.8v3.6c-0.9 1.7-3.6 3.1-6.9 3.3-2.6 0.2-5.2-0.4-6.9-1.4-1.3-0.7-2.2-1.7-2.4-2.8l-0.4-1.8c-3.4-0.3-6.7-0.8-9.8-1.7l-1.6 1.2c-2.8 2-7.8 2.4-11.4 1v-8.4q-2.1-1.6-3.6-3.5l0.1-17.1-2.1-0.9q-0.4-0.2-0.8-0.4c-1.6-0.9-2.4-2.2-2.4-3.4l-0.1 17.9c0 0.8 0.4 1.6 1.1 2.4-2.5 0.1-4.9-0.4-6.6-1.4-1.3-0.8-2.1-1.7-2.4-2.8q-0.1-0.4 0-0.7l-0.1 17.9q0 0.3 0.1 0.6c0.2 1.2 1.1 2.1 2.4 2.9 1.7 1 4.3 1.5 6.9 1.4l2.6-0.2q0.6 0.8 1.3 1.7l-0.1 7.9c0 1.2 0.9 2.5 2.5 3.4q0.4 0.2 0.8 0.4c3.6 1.7 8.9 1.3 11.7-0.8l1.6-1.2c3.2 0.9 6.5 1.4 9.9 1.7l0.3 1.8c0.3 1.1 1.2 2.1 2.4 2.8 1.8 1 4.3 1.6 7 1.4 4.2-0.3 7.3-2.4 7.3-4.8v-2.2c3.1-0.7 6-1.6 8.6-2.7l2.5 1.1c3.6 1.6 8.9 1.3 11.7-0.9 1.2-0.8 1.7-1.9 1.7-2.9l0.1-10.6 0.7-0.1c4.2-0.3 7.3-2.4 7.3-4.8v-17.9c0 2.4-3.1 4.5-7.3 4.8z"/>
					</g>
				</g>
				<g id="&lt;Group&gt;">
					<g id="&lt;Group&gt;">
						<path id="&lt;Path&gt;" class="s26" d="m567.3 800.6l-0.1 17.9c0-3.7-2.5-7.5-7.3-10.2q-1.1-0.7-2.3-1.2c-10.9-4.9-26.5-3.8-34.9 2.5-3.5 2.6-5.2 5.7-5.2 8.8v-17.9c0-3.1 1.7-6.2 5.2-8.8 8.4-6.3 24.1-7.4 34.9-2.5q1.2 0.5 2.3 1.2c4.9 2.8 7.4 6.5 7.4 10.2z"/>
					</g>
					<g id="&lt;Group&gt;">
						<path id="&lt;Path&gt;" class="s1" d="m567.3 795.2l-0.1 17.9c0-3.7-2.5-7.5-7.3-10.2q-1.1-0.7-2.3-1.2c-10.9-4.9-26.5-3.8-34.9 2.5-3.5 2.6-5.2 5.7-5.2 8.8v-17.9c0-3.1 1.7-6.2 5.2-8.8 8.4-6.3 24.1-7.4 34.9-2.5q1.2 0.5 2.3 1.2c4.9 2.7 7.4 6.5 7.4 10.2z"/>
					</g>
					<g id="&lt;Group&gt;">
						<path id="&lt;Path&gt;" class="s2" d="m558.1 795.2v17.9c0 1.9-1.1 3.9-3.3 5.5-5.4 4-15.2 4.7-22.1 1.6q-0.8-0.3-1.5-0.7c-3-1.8-4.6-4.1-4.6-6.5l0.1-17.9c0 2.4 1.5 4.7 4.6 6.5q0.7 0.4 1.5 0.7c6.8 3.1 16.7 2.4 22-1.6 2.2-1.6 3.3-3.6 3.3-5.5z"/>
					</g>
					<g id="&lt;Group&gt;">
						<path id="&lt;Path&gt;" class="s1" d="m530.4 774.7q-0.1-0.3-0.1-0.6v17.9q0 0.3 0 0.6l0.4 1.5v-17.9z"/>
						<g id="&lt;Group&gt;">
							<path id="&lt;Path&gt;" class="s1" d="m573.7 796.7l0.1-17.9c0 1.1-0.6 2.1-1.8 3l-1.9 1.4v17.9l1.9-1.4c1.1-0.9 1.7-1.9 1.7-3z"/>
							<path id="&lt;Path&gt;" class="s1" d="m579.7 797.9l-3.1 0.2c-0.4 1.9-1.4 3.9-2.9 5.7l-0.1 9.3c-2.6 0.5-5.7 0.3-8.1-0.7l-2.4-1.1c-2.8 1.2-5.9 2.1-9.1 2.8v3.6c-0.9 1.7-3.6 3-6.9 3.3-2.6 0.1-5.2-0.4-6.9-1.4-1.3-0.8-2.2-1.7-2.4-2.8l-0.4-1.8c-3.4-0.3-6.7-0.9-9.8-1.8l-1.6 1.2c-2.8 2.1-7.8 2.5-11.4 1v-8.3q-2.1-1.7-3.6-3.5l0.1-17.1-2.1-0.9q-0.4-0.2-0.8-0.4c-1.6-1-2.4-2.2-2.4-3.5l-0.1 17.9c0 0.9 0.4 1.7 1.1 2.4-2.5 0.2-4.9-0.4-6.6-1.4-1.3-0.7-2.1-1.7-2.4-2.8q-0.1-0.3 0-0.6l-0.1 17.9q0 0.3 0.1 0.6c0.2 1.1 1.1 2.1 2.4 2.8 1.7 1 4.3 1.6 6.9 1.4l2.6-0.2q0.6 0.9 1.3 1.8l-0.1 7.8c0 1.3 0.9 2.5 2.5 3.5q0.4 0.2 0.8 0.4c3.6 1.6 8.9 1.2 11.7-0.9l1.6-1.2c3.2 0.9 6.5 1.5 9.9 1.8l0.3 1.7c0.3 1.2 1.2 2.1 2.4 2.9 1.8 1 4.3 1.5 7 1.4 4.2-0.4 7.3-2.4 7.3-4.8v-2.2c3.1-0.7 6-1.6 8.6-2.8l2.5 1.1c3.6 1.7 8.9 1.3 11.7-0.8 1.2-0.9 1.7-1.9 1.7-2.9l0.1-10.7h0.7c4.2-0.3 7.3-2.4 7.3-4.8v-17.9c0 2.4-3.1 4.5-7.3 4.8z"/>
						</g>
					</g>
					<path id="&lt;Compound Path&gt;" fill-rule="evenodd" class="s5" d="m579.7 797.9l-3.1 0.2c-0.4 1.9-1.4 3.9-2.9 5.7l2.1 0.9q0.4 0.2 0.7 0.4c3 1.7 3.4 4.5 0.7 6.4-2.8 2.1-8 2.5-11.7 0.9l-2.4-1.1c-2.8 1.2-5.9 2.1-9.1 2.8l0.4 1.5c0.6 2.6-2.7 5-7.3 5.4-2.6 0.1-5.2-0.4-6.9-1.4-1.3-0.8-2.2-1.7-2.4-2.8l-0.4-1.8c-3.4-0.3-6.7-0.9-9.8-1.8l-1.6 1.2c-2.9 2.2-8.1 2.5-11.8 0.9q-0.4-0.2-0.7-0.4c-3-1.7-3.4-4.5-0.8-6.4l1.9-1.4c-2.1-1.6-3.7-3.4-4.8-5.3l-2.6 0.2c-2.7 0.2-5.2-0.3-7-1.4-1.3-0.7-2.1-1.7-2.4-2.8-0.6-2.6 2.7-5.1 7.3-5.4l3-0.2c0.5-2 1.5-3.9 3-5.7l-2.1-0.9q-0.4-0.2-0.8-0.4c-2.9-1.7-3.3-4.5-0.7-6.4 2.8-2.1 8.1-2.5 11.7-0.9l2.5 1.1c2.8-1.2 5.8-2.1 9-2.8l-0.3-1.5c-0.6-2.6 2.7-5 7.2-5.4 2.7-0.2 5.2 0.4 7 1.4 1.2 0.7 2.1 1.7 2.4 2.8l0.4 1.8c3.3 0.3 6.6 0.9 9.8 1.7l1.6-1.2c2.8-2.1 8.1-2.4 11.7-0.8q0.4 0.2 0.8 0.4c3 1.7 3.3 4.4 0.7 6.4l-1.9 1.4q3.2 2.4 4.9 5.3l2.6-0.2c2.7-0.2 5.2 0.3 6.9 1.3 1.3 0.8 2.2 1.8 2.4 2.9 0.6 2.6-2.6 5-7.2 5.4zm-19.8-12.9q-1.1-0.7-2.3-1.2c-10.8-4.9-26.5-3.8-34.9 2.5-7.7 5.8-6.6 13.9 2.1 19q1.1 0.6 2.4 1.2c10.8 4.9 26.4 3.8 34.8-2.5 7.8-5.8 6.7-14-2.1-19z"/>
					<g id="&lt;Group&gt;">
						<path id="&lt;Path&gt;" class="s5" d="m553.5 788.7c5.5 3.2 6.2 8.4 1.3 12-5.3 4-15.2 4.7-22 1.6q-0.8-0.3-1.5-0.7c-5.6-3.2-6.3-8.4-1.4-12.1 5.4-3.9 15.2-4.6 22.1-1.5q0.8 0.3 1.5 0.7z"/>
					</g>
				</g>
				<g id="&lt;Group&gt;">
					<g id="&lt;Group&gt;">
						<path id="&lt;Path&gt;" class="s1" d="m732.8 807.7l-0.1 22.3c0.1-4.7-3.1-9.3-9.1-12.8q-1.3-0.8-2.9-1.5c-13.5-6.1-33-4.7-43.4 3.1-4.4 3.3-6.5 7.1-6.5 11v-22.3c0.1-3.8 2.2-7.7 6.5-11 10.5-7.8 30-9.2 43.5-3.1q1.5 0.7 2.9 1.5c6 3.5 9.1 8.1 9.1 12.8z"/>
					</g>
					<g id="&lt;Group&gt;">
						<path id="&lt;Path&gt;" class="s2" d="m721.4 807.7v22.2c-0.1 2.5-1.4 4.9-4.1 7-6.7 4.9-19 5.8-27.5 1.9q-1-0.4-1.9-0.9c-3.8-2.2-5.7-5.1-5.7-8.1v-22.3c0 3 2 5.9 5.8 8.1q0.9 0.5 1.8 0.9c8.6 3.9 20.9 3 27.5-1.9 2.8-2.1 4.1-4.5 4.1-6.9z"/>
					</g>
					<g id="&lt;Group&gt;">
						<path id="&lt;Path&gt;" class="s1" d="m686.9 782.1q-0.1-0.4-0.1-0.7l-0.1 22.3q0 0.3 0.1 0.7l0.4 1.9 0.1-22.3z"/>
						<g id="&lt;Group&gt;">
							<path id="&lt;Path&gt;" class="s1" d="m740.9 809.6v-22.3c0 1.3-0.7 2.6-2.2 3.6l-2.3 1.8-0.1 22.3 2.4-1.8c1.4-1.1 2.2-2.3 2.2-3.6z"/>
							<path id="&lt;Path&gt;" class="s1" d="m748.3 811l-3.8 0.3c-0.6 2.4-1.8 4.8-3.7 7v11.6c-3.3 0.7-7.2 0.5-10.1-0.9l-3.1-1.3c-3.5 1.5-7.3 2.6-11.3 3.4v4.5c-1.2 2.2-4.4 3.8-8.6 4.1-3.3 0.3-6.4-0.4-8.6-1.7-1.6-0.9-2.7-2.1-3-3.5l-0.5-2.2c-4.2-0.4-8.3-1.1-12.2-2.2l-2 1.5c-3.4 2.6-9.7 3.1-14.2 1.3v-10.4q-2.6-2.1-4.4-4.4v-21.3l-2.6-1.1q-0.5-0.3-0.9-0.5c-2-1.2-3.1-2.8-3.1-4.3l-0.1 22.3c0 1 0.5 2 1.4 3-3.1 0.1-6.1-0.6-8.2-1.8-1.6-0.9-2.7-2.1-3-3.5q-0.1-0.4-0.1-0.8v22.3q0 0.4 0 0.8c0.4 1.4 1.4 2.6 3 3.5 2.2 1.3 5.4 2 8.7 1.7l3.2-0.2q0.7 1.1 1.6 2.2v9.8c0 1.5 1 3.1 3 4.3q0.5 0.2 1 0.5c4.5 2 11.1 1.6 14.6-1.1l2-1.5c3.9 1.1 8.1 1.8 12.3 2.2l0.4 2.2c0.3 1.4 1.4 2.6 3 3.5 2.2 1.3 5.4 2 8.7 1.7 5.2-0.3 9.1-2.9 9.1-5.9v-2.8c3.8-0.8 7.4-1.9 10.8-3.4l3 1.4c4.5 2.1 11.1 1.6 14.6-1 1.5-1.1 2.2-2.4 2.2-3.7v-13.3h0.9c5.2-0.4 9-3 9.1-6v-22.3c0 3-3.8 5.6-9.1 6z"/>
						</g>
					</g>
					<path id="&lt;Compound Path&gt;" fill-rule="evenodd" class="s5" d="m748.3 811l-3.8 0.3c-0.6 2.4-1.8 4.8-3.7 7l2.6 1.2q0.5 0.3 1 0.5c3.6 2.1 4.1 5.5 0.9 8-3.6 2.6-10.1 3.1-14.6 1l-3.1-1.3c-3.5 1.5-7.3 2.6-11.3 3.4l0.5 1.9c0.7 3.3-3.4 6.3-9.1 6.7-3.3 0.3-6.4-0.4-8.6-1.7-1.6-0.9-2.7-2.1-3-3.5l-0.5-2.2c-4.2-0.4-8.3-1.1-12.2-2.2l-2 1.5c-3.6 2.7-10.1 3.1-14.6 1.1q-0.6-0.3-1-0.5c-3.7-2.1-4.2-5.6-0.9-8l2.3-1.7c-2.5-2.1-4.6-4.3-6-6.6l-3.3 0.3c-3.3 0.2-6.4-0.5-8.6-1.8-1.6-0.9-2.7-2.1-3-3.5-0.7-3.3 3.3-6.3 9-6.7l3.8-0.3c0.6-2.4 1.9-4.8 3.7-7.1l-2.6-1.1q-0.5-0.3-0.9-0.5c-3.7-2.2-4.2-5.6-0.9-8 3.5-2.6 10-3.1 14.6-1.1l3 1.4c3.5-1.5 7.3-2.7 11.3-3.5l-0.4-1.9c-0.7-3.3 3.3-6.3 9-6.7 3.3-0.2 6.5 0.5 8.7 1.7 1.5 1 2.6 2.2 2.9 3.6l0.5 2.2c4.2 0.3 8.3 1 12.3 2.1l2-1.5c3.5-2.6 10-3.1 14.6-1q0.5 0.2 1 0.5c3.6 2.1 4.1 5.5 0.8 7.9l-2.3 1.8c2.6 2 4.6 4.2 6 6.6l3.3-0.3c3.3-0.2 6.5 0.5 8.7 1.7 1.5 1 2.6 2.2 2.9 3.6 0.8 3.3-3.3 6.3-9 6.7zm-24.6-16.1q-1.4-0.8-2.9-1.5c-13.5-6.1-33-4.7-43.5 3.1-9.6 7.3-8.3 17.4 2.7 23.8q1.3 0.7 2.9 1.4c13.5 6.1 33 4.7 43.4-3.1 9.7-7.2 8.3-17.4-2.6-23.7z"/>
					<g id="&lt;Group&gt;">
						<path id="&lt;Path&gt;" class="s5" d="m715.6 799.6c7 4 7.8 10.4 1.7 15-6.6 4.9-18.9 5.8-27.5 1.9q-0.9-0.4-1.8-0.9c-6.9-4-7.8-10.4-1.7-15 6.7-4.9 19-5.8 27.5-2q1 0.5 1.8 1z"/>
					</g>
				</g>
				<g id="&lt;Group&gt;">
					<g id="&lt;Group&gt;">
						<path id="&lt;Path&gt;" class="s3" d="m623.2 866.7v15.6c0-3.3-2.2-6.5-6.4-9q-1-0.5-2.1-1c-9.5-4.3-23.1-3.3-30.5 2.2-3.1 2.3-4.5 5-4.5 7.7v-15.7c0-2.7 1.5-5.4 4.5-7.7 7.4-5.5 21.1-6.4 30.6-2.1q1.1 0.4 2 1c4.2 2.4 6.4 5.7 6.4 9z"/>
					</g>
					<g id="&lt;Group&gt;">
						<path id="&lt;Path&gt;" class="s4" d="m615.2 866.6v15.7c0 1.7-1 3.4-2.9 4.8-4.7 3.5-13.3 4.1-19.3 1.4q-0.7-0.3-1.3-0.6c-2.7-1.6-4.1-3.6-4-5.7v-15.7c0 2.1 1.4 4.2 4 5.7q0.6 0.4 1.3 0.7c6 2.7 14.7 2.1 19.3-1.4 2-1.4 2.9-3.2 2.9-4.9z"/>
					</g>
					<g id="&lt;Group&gt;">
						<path id="&lt;Path&gt;" class="s3" d="m591 848.7q-0.1-0.3-0.1-0.5v15.6q0 0.3 0 0.6l0.3 1.3 0.1-15.6z"/>
						<g id="&lt;Group&gt;">
							<path id="&lt;Path&gt;" class="s3" d="m628.9 868v-15.7c0 0.9-0.5 1.8-1.5 2.6l-1.7 1.2v15.7l1.6-1.2c1.1-0.8 1.6-1.7 1.6-2.6z"/>
							<path id="&lt;Path&gt;" class="s3" d="m634.1 869l-2.7 0.2c-0.4 1.7-1.3 3.4-2.6 5v8.1c-2.3 0.5-5 0.3-7.1-0.6l-2.1-1c-2.5 1-5.1 1.9-8 2.4v3.2c-0.8 1.5-3.1 2.7-6 2.9-2.3 0.1-4.5-0.3-6.1-1.2-1.1-0.7-1.8-1.5-2.1-2.5l-0.3-1.5c-2.9-0.3-5.8-0.8-8.6-1.6l-1.4 1.1c-2.4 1.8-6.8 2.1-9.9 0.8v-7.3q-1.9-1.4-3.2-3l0.1-15-1.8-0.8q-0.4-0.2-0.7-0.3c-1.5-0.9-2.2-1.9-2.2-3v15.6c0 0.7 0.3 1.5 0.9 2.1-2.2 0.1-4.3-0.3-5.7-1.2-1.2-0.6-1.9-1.5-2.1-2.5q-0.1-0.2-0.1-0.5v15.6q0 0.3 0 0.6c0.2 1 1 1.8 2.1 2.5 1.6 0.8 3.8 1.3 6.1 1.2l2.3-0.2q0.5 0.8 1.1 1.5l-0.1 6.9c0 1.1 0.8 2.2 2.2 3q0.3 0.2 0.7 0.4c3.2 1.4 7.8 1.1 10.2-0.8l1.4-1c2.8 0.8 5.7 1.3 8.7 1.5l0.3 1.6c0.2 0.9 1 1.8 2.1 2.4 1.5 0.9 3.7 1.4 6.1 1.2 3.7-0.2 6.4-2 6.4-4.1v-2c2.6-0.6 5.2-1.3 7.5-2.4l2.2 1c3.2 1.4 7.7 1.1 10.2-0.7 1-0.8 1.5-1.7 1.5-2.6l0.1-9.3 0.6-0.1c3.7-0.2 6.3-2 6.4-4.1v-15.7c0 2.1-2.7 3.9-6.4 4.2z"/>
						</g>
					</g>
					<path id="&lt;Compound Path&gt;" fill-rule="evenodd" class="s6" d="m634.1 869l-2.7 0.2c-0.4 1.7-1.3 3.4-2.6 5l1.9 0.8q0.3 0.1 0.6 0.3c2.6 1.5 2.9 3.9 0.7 5.6-2.5 1.9-7.1 2.2-10.3 0.8l-2.1-1c-2.5 1-5.1 1.9-8 2.4l0.3 1.4c0.6 2.3-2.3 4.4-6.3 4.7-2.3 0.1-4.5-0.3-6.1-1.2-1.1-0.7-1.8-1.5-2.1-2.5l-0.3-1.5c-2.9-0.3-5.8-0.8-8.6-1.6l-1.4 1.1c-2.5 1.8-7.1 2.2-10.3 0.7q-0.3-0.1-0.7-0.3c-2.5-1.5-2.9-3.9-0.6-5.6l1.7-1.3c-1.8-1.4-3.3-2.9-4.3-4.6l-2.3 0.2c-2.3 0.2-4.5-0.3-6-1.2-1.2-0.6-1.9-1.5-2.1-2.5-0.5-2.3 2.3-4.4 6.3-4.7l2.7-0.2q0.6-2.6 2.6-5l-1.8-0.8q-0.4-0.2-0.7-0.3c-2.6-1.5-2.9-3.9-0.7-5.6 2.5-1.9 7.1-2.2 10.3-0.8l2.1 1c2.5-1.1 5.1-1.9 8-2.4l-0.3-1.4c-0.5-2.3 2.3-4.4 6.3-4.7 2.3-0.2 4.5 0.3 6.1 1.2 1.1 0.7 1.9 1.5 2.1 2.5l0.3 1.5c2.9 0.3 5.9 0.8 8.6 1.6l1.4-1.1c2.5-1.8 7.1-2.2 10.3-0.7q0.3 0.1 0.7 0.3c2.5 1.5 2.9 3.9 0.6 5.6l-1.7 1.2q2.8 2.2 4.3 4.6l2.3-0.1c2.3-0.2 4.5 0.3 6 1.2 1.2 0.6 1.9 1.5 2.1 2.5 0.5 2.3-2.3 4.4-6.3 4.7zm-17.3-11.3q-0.9-0.6-2-1c-9.5-4.3-23.2-3.3-30.6 2.1-6.7 5.1-5.8 12.3 1.9 16.7q0.9 0.5 2 1c9.5 4.3 23.2 3.3 30.6-2.2 6.8-5 5.8-12.2-1.9-16.6z"/>
					<g id="&lt;Group&gt;">
						<path id="&lt;Path&gt;" class="s6" d="m611.2 861c4.8 2.8 5.4 7.3 1.1 10.5-4.6 3.5-13.3 4.1-19.3 1.4q-0.7-0.3-1.3-0.7c-4.8-2.8-5.4-7.3-1.1-10.5 4.6-3.5 13.3-4.1 19.3-1.4q0.7 0.3 1.3 0.7z"/>
					</g>
				</g>
			</g>
			<g id="&lt;Group&gt;">
				<g id="&lt;Group&gt;">
					<path id="&lt;Path&gt;" class="s14" d="m913.3 610.8c0 0-22.3 3.3-21.9 3.1 0.4-0.2 40.8 20.5 40.8 20.5l39.8-17.8-19.7-5.8z"/>
				</g>
				<g id="&lt;Group&gt;">
					<g id="&lt;Group&gt;">
						<path id="&lt;Path&gt;" class="s27" d="m921.9 641.2q-0.2 0-0.4 0-0.1 0-0.2 0c-5.6 0.1-9.4 0-9.4 0q0 0-0.7 0.1c-4.9 1-31 6-28.8-3.8 2-8.7 17.7-7.6 23.9-6.8q0.1 0 0.1 0c1.6 0.2 2.5 0.4 2.5 0.4 0 0 3.2-1.4 8.1-3.3q0.3-0.1 0.6-0.2c16.2-6.3 50.3-18.2 59.2-11.1q0 0 0 0 0.1 0.1 0.3 0.3 0 0 0 0 0.1 0.1 0.2 0.3 0.2 0.1 0.3 0.2 0 0 0 0.1 0.2 0.2 0.3 0.4 0 0 0 0 0.2 0.2 0.3 0.4 0.1 0.2 0.2 0.5 0.2 0.5 0.3 1 0.2 0.6 0.2 1.1 0.1 0.9 0.1 1.9c-0.7 15.9-38.7 18.3-57.1 18.5z"/>
					</g>
					<g id="&lt;Group&gt;">
						<path id="&lt;Path&gt;" class="s28" d="m922.2 643.1l-0.7-1.9-0.2-0.8q0 0 0 0l-4.3-12.6-0.6-1.8c16.2-6.3 51.4-17 60.4-9.5q0.1 0.1 0.3 0.3 0 0 0 0 0.1 0.1 0.2 0.3 0.2 0.1 0.3 0.2 0 0 0 0.1 0.2 0.2 0.3 0.4 0 0 0 0 0.2 0.2 0.3 0.4 0.1 0.2 0.2 0.5 0.2 0.5 0.3 1 0.2 0.6 0.2 1.1 0.1 0.9 0.1 1.9c-0.6 16.1-38.4 20.2-56.8 20.4z"/>
					</g>
					<g id="&lt;Group&gt;">
						<path id="&lt;Path&gt;" class="s28" d="m908.9 631.1c0 0-29.5-5.8-30.8 6.7-1.4 13.5 33.8 3.4 33.8 3.4 0 0-13.6 3-12.9-4.6 0.6-7.4 9.9-5.5 9.9-5.5z"/>
					</g>
				</g>
				<g id="&lt;Group&gt;">
					<path id="&lt;Path&gt;" class="s27" d="m952.9 580.4c-5.8 8.1-0.6 30.4-0.6 30.4h-39c1.1-1.5 4.1-20.7-2.7-31.3-11-17.1 0.8-30.4 0.8-30.4l16.2-2.9 1.1-5.2 0.7-3.6 0.1-0.8h7.3l0.3 1.6 0.6 3.3 0.8 5 14.9 3.3c0 0 12.8 11.9-0.5 30.6z"/>
				</g>
				<g id="&lt;Group&gt;">
					<path id="&lt;Path&gt;" class="s10" d="m952.9 580.4c-5.8 8.1-0.6 30.4-0.6 30.4h-39c0.9-1.3 3.2-15.4-0.3-26.1-0.6-1.9-1.4-3.6-2.4-5.2-11-17.1 0.8-30.4 0.8-30.4l16.2-3c0.7 3.7 9.5 3.5 10.9 0.4l14.9 3.3c0 0 12.8 11.9-0.5 30.6z"/>
				</g>
				<g id="&lt;Group&gt;">
					<path id="&lt;Path&gt;" class="s29" d="m913.3 610.8c0.9-1.3 3.2-15.4-0.3-26.1 7.7-2.2 6.4 19.1 19.2 26.1z"/>
				</g>
				<g id="&lt;Group&gt;">
					<path id="&lt;Path&gt;" class="s27" d="m974.1 597.3c-0.5 2.6-2.2 5.3-4.9 8-6.7 6.9-20.4 6.6-29.8 9.1l-1-5c0 0 16.8-4.7 20.4-10.6q0.6-1 0.8-1.8c1.2-5.8-5.6-13.2-5.6-13.2l-0.7-34c0 0 22.8 34.7 20.8 47.5z"/>
				</g>
				<g id="&lt;Group&gt;">
					<path id="&lt;Path&gt;" class="s10" d="m974.3 597.3c-0.5 2.4-1.9 5.4-4.3 8-0.2 0.3-0.6 0.3-0.9 0.1l-2.9-1.9-7.6-4.9c0.4-0.6 0.6-1.2 0.7-1.7 1.2-5.9-9.7-15-9.7-15l2.7-32.3c3.5-0.2 9.2 7.8 14 17.6q0 0 0 0.1c5.2 10.6 9.2 23.3 8 30z"/>
				</g>
				<g id="&lt;Group&gt;">
					<path id="&lt;Path&gt;" class="s27" d="m927 609.5l0.2 3.3c0.3-0.1 0.2-0.5-0.1-0.6-8.4-1.7-22.1 0.7-28.8-5-4.2-3.5-6.4-7.9-7-11.2-2-12.8 20.3-46.9 20.3-46.9l-0.9 34c0 0-6.8 7.4-5.5 13.3 0.2 1 1 2.3 2.2 3.7 5 5.9 19.6 9.4 19.6 9.4z"/>
				</g>
				<g id="&lt;Group&gt;">
					<path id="&lt;Path&gt;" class="s10" d="m905.2 596.4c0.2 1 1.6 1.9 2.8 3.3l-7 5.9-2.8 2.3c-4.2-3.5-6.6-8-7.5-11.3-1.4-5 0.6-13.5 4-22q0-0.1 0-0.1c5.1-12.8 13.2-25.4 17.5-25.5l2.5 34.5c0 0-10.8 7-9.5 12.9z"/>
				</g>
				<g id="&lt;Group&gt;">
					<g id="&lt;Group&gt;">
						<path id="&lt;Path&gt;" class="s27" d="m982.1 636.4c2.3 10-24.3 5.1-29.3 4.1q-0.7-0.1-0.7-0.1c0 0-3.9 0.2-9.8 0.1q-0.2 0-0.3 0c-8.6 0-21.2-0.5-32.6-2.5-13.9-2.5-25.8-7.3-25.8-16.5q0 0 0 0 0-0.6 0.1-1.2 0 0 0 0 0-0.6 0.2-1.2 0.1-0.6 0.3-1.1 0.1-0.2 0.2-0.4 0.1-0.3 0.3-0.5 0 0 0 0 0.1-0.2 0.2-0.4 0.1 0 0.1-0.1 0.1-0.1 0.3-0.2 0.1-0.2 0.2-0.3 0 0 0 0c1.1-1 2.6-1.7 4.5-2.1 12.7-2.8 41.6 7.1 56.2 12.6q0.3 0.1 0.6 0.2c5 1.9 8.2 3.3 8.2 3.3 0 0 1-0.2 2.6-0.4q0 0 0.1 0c6.4-0.9 22.3-2.1 24.4 6.7z"/>
					</g>
					<g id="&lt;Group&gt;">
						<path id="&lt;Path&gt;" class="s14" d="m947.4 625l-0.6 1.8-4.5 13.7-0.6 1.9c-7.8 0-18.9-0.7-29.3-2.6q0 0 0 0c-15.1-2.8-28.9-8.3-28.8-18.3q0 0 0 0 0-0.6 0.1-1.2 0 0 0 0 0-0.6 0.2-1.2 0.1-0.6 0.3-1.1 0.1-0.2 0.2-0.4 0.1-0.3 0.3-0.5 0 0 0 0 0.1-0.2 0.2-0.4 0.1 0 0.1-0.1 0.1-0.1 0.3-0.2 0.1-0.2 0.2-0.3 0 0 0 0c1.2-1.1 2.7-1.8 4.7-2.3 13.1-3.2 42.6 5.7 57.2 11.2z"/>
					</g>
					<g id="&lt;Group&gt;">
						<path id="&lt;Path&gt;" class="s14" d="m955 630.1c0 0 30.1-6.1 31.5 6.6 1.5 13.7-34.4 3.7-34.4 3.7 0 0 13.1 2.5 12.4-5.2-0.7-7.5-9.5-5.1-9.5-5.1z"/>
					</g>
				</g>
				<g id="&lt;Group&gt;">
					<path id="&lt;Path&gt;" class="s11" d="m960 580.8v31.9c0 1.8-1.4 3.2-3.1 3.2h-49c-1.7 0-3.1-1.4-3.1-3.2v-31.9c0-1.7 1.4-3.1 3.1-3.1h49c1.7 0 3.1 1.4 3.1 3.1z"/>
				</g>
				<g id="&lt;Group&gt;">
					<path id="&lt;Path&gt;" class="s30" d="m927.5 596.8c0-2.7 2.2-4.9 4.9-4.9 2.7 0 4.9 2.2 4.9 4.9 0 2.7-2.2 4.8-4.9 4.8-2.7 0-4.9-2.1-4.9-4.8z"/>
				</g>
				<g id="&lt;Group&gt;">
					<path id="&lt;Path&gt;" class="s30" d="m960 580.8v31.9c0 1.8-1.4 3.2-3.1 3.2h-49c-1.7 0-3.1-1.4-3.1-3.2 49.5 2.3 55.2-4.9 52.1-35 1.7 0 3.1 1.4 3.1 3.1z"/>
				</g>
				<g id="&lt;Group&gt;">
					<path id="&lt;Path&gt;" class="s31" d="m974.3 597.3c-0.5 2.4-1.9 5.4-4.3 8-0.2 0.3-0.6 0.3-0.9 0.1l-2.9-1.9c1.5-2.6 3.7-4.7 4.8-8.7 2.8-10.9-4.3-26.6-4.7-27.5 5.2 10.6 9.2 23.3 8 30z"/>
				</g>
				<g id="&lt;Group&gt;">
					<path id="&lt;Path&gt;" class="s28" d="m923.1 527.8c0 0-5.8-6.3-1.1-14.6 0 0 1.5 2.6 3.2 1.9 0 0 0.1-6.1 12.4-7.4 0 0-0.9 2.5-0.5 3.1 4.1-1.8 8.1 2.6 12 1 0 0 1.1 7-3.4 11.1 0 0 0.6 2.5-1 4.9-1.6 2.4-21.6 0-21.6 0z"/>
				</g>
				<g id="&lt;Group&gt;">
					<path id="&lt;Path&gt;" class="s27" d="m925 525.9c0 0-2.7-2.6-2.9-0.1-0.3 3 3.2 5.2 3.2 5.2 0 0 0.9 9.3 8.7 9.3 7.7 0 9-9.3 9-9.3 0 0 4.1-1.1 3.3-4.6-0.5-1.7-2.6 0-2.6 0v-4.4c0 0-2.2 1.1-6.3-0.7-3.1-1.3-4.2-3.1-6.7-3-3 0.1-5.8 3.4-5.7 7.6z"/>
				</g>
			</g>
		</g>
	</g>
</svg>