<svg version="1.2" xmlns="http://www.w3.org/2000/svg" viewBox="0 0 1500 1000" width="1500" height="1000">
	<title>3779224-ai</title>
	<defs>
		<linearGradient id="g1" x2="1" gradientUnits="userSpaceOnUse" gradientTransform="matrix(0,421.829,-165.405,0,1368.836,320.776)">
			<stop offset="0" stop-color="#ffffff" stop-opacity="1"/>
			<stop offset="1" stop-color="#ffffff" stop-opacity="0"/>
		</linearGradient>
		<linearGradient id="g2" x2="1" gradientUnits="userSpaceOnUse" gradientTransform="matrix(0,421.829,-216.511,0,1331.04,320.776)">
			<stop offset="0" stop-color="#ffffff" stop-opacity="1"/>
			<stop offset="1" stop-color="#ffffff" stop-opacity="0"/>
		</linearGradient>
	</defs>
	<style>
		.s0 { opacity: .2;fill: #b5d0ff } 
		.s1 { fill: #6f3fba } 
		.s2 { fill: #5730a0 } 
		.s3 { fill: #774cc9 } 
		.s4 { fill: #854dce } 
		.s5 { fill: #b8b8f4 } 
		.s6 { fill: #eefaff } 
		.s7 { fill: #7272dd } 
		.s8 { opacity: .2;fill: url(#g1) } 
		.s9 { opacity: .2;fill: url(#g2) } 
		.s10 { fill: #9494ed } 
		.s11 { fill: #f98094 } 
		.s12 { fill: #ffffff } 
		.s13 { fill: #d6d4ff } 
		.s14 { fill: #7878c4 } 
		.s15 { fill: #0e7c74 } 
		.s16 { fill: #a29ee5 } 
		.s17 { fill: #8c8cdd } 
		.s18 { fill: #bfb8f4 } 
		.s19 { fill: #383493 } 
		.s20 { fill: #5146af } 
		.s21 { fill: none;stroke: #5730a0;stroke-linecap: round;stroke-linejoin: round;stroke-width: 4 } 
		.s22 { opacity: .3;fill: #ffffff } 
		.s23 { fill: #6c3db7 } 
		.s24 { fill: #f7b59c } 
		.s25 { fill: #01263a } 
		.s26 { fill: #003051 } 
		.s27 { fill: #ed9780 } 
		.s28 { fill: #8d1612 } 
		.s29 { fill: #ff4c2f } 
		.s30 { fill: #fafff7 } 
		.s31 { fill: #452e17 } 
		.s32 { fill: #f4f4f4 } 
		.s33 { fill: none;stroke: #ffffff;stroke-miterlimit:10;stroke-width: 2 } 
		.s34 { fill: none;stroke: #ffffff;stroke-linecap: round;stroke-miterlimit:10;stroke-width: 2 } 
		.s35 { fill: none;stroke: #ed9780;stroke-linecap: round;stroke-miterlimit:10;stroke-width: 2 } 
		.s36 { fill: #9999ef } 
		.s37 { fill: #4c4051 } 
		.s38 { fill: #0052a3 } 
		.s39 { fill: #594a5f } 
		.s40 { fill: #0058c4 } 
		.s41 { fill: #2c1e56 } 
		.s42 { fill: #e5a18c } 
		.s43 { fill: #d1deff } 
		.s44 { fill: #eaa18b } 
		.s45 { fill: none;stroke: #eaa18b;stroke-linecap: round;stroke-miterlimit:10 } 
		.s46 { fill: none;stroke: #c9806f;stroke-linecap: round;stroke-miterlimit:10 } 
		.s47 { fill: #9999f1 } 
		.s48 { fill: #c2e0f2 } 
		.s49 { fill: #1a1a47 } 
		.s50 { fill: #9ca2f2 } 
		.s51 { fill: #0b0b3a } 
		.s52 { fill: #b0b2ff } 
		.s53 { fill: #3d3d72 } 
		.s54 { fill: #94c1f7 } 
		.s55 { fill: #b5d0ff } 
		.s56 { fill: #cfe3ff } 
		.s57 { opacity: .5;fill: #94c1f7 } 
		.s58 { fill: #e1efff } 
		.s59 { fill: #cce1ff } 
		.s60 { fill: #7878ff } 
		.s61 { fill: none;stroke: #9acee2;stroke-linecap: round;stroke-miterlimit:10;stroke-width: 2 } 
		.s62 { fill: none;stroke: #9acee2;stroke-linecap: round;stroke-miterlimit:10;stroke-width: 2;stroke-dasharray: 23.7116,9.87984 } 
		.s63 { fill: none;stroke: #9acee2;stroke-linecap: round;stroke-miterlimit:10;stroke-width: 2;stroke-dasharray: 23.6706,9.86272 } 
		.s64 { fill: none;stroke: #9acee2;stroke-linecap: round;stroke-miterlimit:10;stroke-width: 2;stroke-dasharray: 24,10 } 
		.s65 { fill: #389fe5 } 
		.s66 { fill: none;stroke: #ffffff;stroke-linecap: round;stroke-linejoin: round;stroke-width: 2.8 } 
		.s67 { fill: #81a8cc } 
		.s68 { fill: none;stroke: #ffffff;stroke-linecap: round;stroke-linejoin: round;stroke-width: 2.1 } 
		.s69 { fill: none;stroke: #ffffff;stroke-linecap: round;stroke-linejoin: round;stroke-width: 3.2 } 
		.s70 { fill: #8787dd } 
	</style>
	<g id="BACKGROUND">
	</g>
	<g id="OBJECTS">
		<g id="&lt;Group&gt;">
			<path id="&lt;Path&gt;" class="s0" d="m188.4 886c0 0-130.9-152.7 16.6-318.8 118.9-133.9 81-185.7 75.5-276-4.7-76.4 82-189.4 211.7-195.1 212.6-9.2 265.5 59.1 378.4 54.3 112.8-4.9 163.9-44.4 295-28.8 243.3 28.9 210.5 259.5 175 431.8-35.4 172.4 71.1 231.2-5.6 332.7"/>
			<g id="&lt;Group&gt;">
				<g id="&lt;Group&gt;">
					<g id="&lt;Group&gt;">
						<path id="&lt;Path&gt;" class="s1" d="m852.7 860.9h-205.4l22.3-87.8 5-19.9 9.9-38.5h131l9.8 38.5 5.1 19.9z"/>
					</g>
					<g id="&lt;Group&gt;">
						<path id="&lt;Path&gt;" class="s2" d="m830.4 773.1h-160.8l5-19.9h150.7z"/>
					</g>
					<g id="&lt;Group&gt;">
						<path id="&lt;Path&gt;" class="s3" d="m931.6 885.1h-363.2c-8.7 0-15.8-7.1-15.8-15.8 0-8.7 7.1-15.7 15.8-15.7h363.2c8.7 0 15.7 7 15.7 15.7 0 8.7-7 15.8-15.7 15.8z"/>
					</g>
				</g>
				<g id="&lt;Group&gt;">
					<path id="&lt;Path&gt;" class="s4" d="m1085.2 341.9v386.2c0 9.2-7.4 16.7-16.6 16.7h-637.2c-9.2 0-16.6-7.5-16.6-16.7v-386.2c0-9.2 7.4-16.6 16.6-16.6h637.2c9.2 0 16.6 7.4 16.6 16.6z"/>
				</g>
				<g id="&lt;Group&gt;">
					<path id="&lt;Path&gt;" class="s5" d="m1071.7 678h-644.7v-340.5h644.7z"/>
				</g>
				<g id="&lt;Group&gt;" style="opacity: .3">
					<path id="&lt;Path&gt;" class="s6" d="m1007.9 627h-18.1v-289.5h18.1z"/>
					<path id="&lt;Path&gt;" class="s6" d="m1053.7 627h-18.1v-289.5h18.1z"/>
					<path id="&lt;Path&gt;" class="s6" d="m458.4 627h-18v-289.5h18z"/>
					<path id="&lt;Path&gt;" class="s6" d="m504.2 627h-18v-289.5h18z"/>
					<path id="&lt;Path&gt;" class="s6" d="m550 627h-18v-289.5h18z"/>
					<path id="&lt;Path&gt;" class="s6" d="m595.8 627h-18.1v-289.5h18.1z"/>
					<path id="&lt;Path&gt;" class="s6" d="m641.6 627h-18.1v-289.5h18.1z"/>
					<path id="&lt;Path&gt;" class="s6" d="m687.4 627h-18.1v-289.5h18.1z"/>
					<path id="&lt;Path&gt;" class="s6" d="m733.2 627h-18.1v-289.5h18.1z"/>
					<path id="&lt;Path&gt;" class="s6" d="m779 627h-18.1v-289.5h18.1z"/>
					<path id="&lt;Path&gt;" class="s6" d="m824.8 627h-18.1v-289.5h18.1z"/>
					<path id="&lt;Path&gt;" class="s6" d="m870.6 627h-18.1v-289.5h18.1z"/>
					<path id="&lt;Path&gt;" class="s6" d="m916.3 627h-18v-289.5h18z"/>
					<path id="&lt;Path&gt;" class="s6" d="m962.1 627h-18v-289.5h18z"/>
				</g>
				<path id="&lt;Path&gt;" class="s7" d="m1071.7 678h-644.7v-51h644.7z"/>
				<g id="&lt;Group&gt;">
					<path id="&lt;Path&gt;" class="s2" d="m750 725.7c-8.5 0-15.5-6.9-15.5-15.4 0-8.5 7-15.5 15.5-15.5 8.5 0 15.4 7 15.4 15.5 0 8.5-6.9 15.4-15.4 15.4z"/>
				</g>
				<path id="&lt;Path&gt;" class="s8" d="m797.4 744.5h-45.3l119.1-419.2h45.3z"/>
				<path id="&lt;Path&gt;" class="s9" d="m911.1 744.5h-96l119.1-419.2h96z"/>
				<g id="&lt;Group&gt;">
					<path id="&lt;Path&gt;" class="s10" d="m1047 657.5h-528.9c-2.8 0-5-2.3-5-5 0-2.8 2.2-5 5-5h528.9c2.8 0 5 2.2 5 5 0 2.7-2.2 5-5 5z"/>
					<path id="&lt;Path&gt;" class="s11" d="m782.5 647.5v10h-264.4c-2.8 0-5-2.2-5-5 0-2.8 2.2-5 5-5z"/>
					<path id="&lt;Path&gt;" class="s12" d="m791.7 652.5c0 5-4.1 9-9 9-5 0-9-4-9-9 0-5 4-9 9-9 4.9 0 9 4 9 9z"/>
				</g>
				<g id="&lt;Group&gt;">
					<path id="&lt;Path&gt;" class="s12" d="m490.3 652.5c-0.1 11.1-9 20.1-20.1 20.1-11.1 0-20.1-9-20.1-20.1 0-11.1 9-20.1 20.1-20.1 11.1 0 20 9 20 20.1z"/>
					<g id="&lt;Group&gt;">
						<path id="&lt;Path&gt;" class="s4" d="m467.1 643.5l11 8.5c0.4 0.2 0.4 0.8 0 1l-11 8.5c-0.4 0.3-1 0-1-0.5v-17c0-0.5 0.6-0.9 1-0.5z"/>
					</g>
				</g>
			</g>
			<g id="&lt;Group&gt;">
				<g id="&lt;Group&gt;">
					<g id="&lt;Group&gt;">
						<path id="&lt;Path&gt;" class="s13" d="m198.3 842c0 0-96.8-130.8-66.4-158.7 30.4-27.9 74.8 70.4 66.4 158.7z"/>
					</g>
					<g id="&lt;Group&gt;">
						<g id="&lt;Group&gt;">
							<path id="&lt;Path&gt;" class="s14" d="m141 698.8c17.3 26.5 31.2 55.1 41.2 85.1q6.6 19.6 11.3 39.7c2.9 12.6 4.8 25.4 7.4 38 0.1 0.7 1.3 0.5 1.2-0.1-2.1-26.7-9.4-53.8-18-79-10.1-29.8-23.8-58.5-41.9-84.4-0.5-0.8-1.7-0.1-1.2 0.7z"/>
						</g>
					</g>
					<g id="&lt;Group&gt;">
						<g id="&lt;Group&gt;">
							<path id="&lt;Path&gt;" class="s14" d="m138.5 716.7c8.2 5.8 15.9 12.4 24.2 18 0.5 0.3 1-0.4 0.6-0.8-6.2-7.4-15.6-14.1-24.2-18.3-0.7-0.3-1.3 0.6-0.6 1.1z"/>
						</g>
					</g>
					<g id="&lt;Group&gt;">
						<g id="&lt;Group&gt;">
							<path id="&lt;Path&gt;" class="s14" d="m141.5 724.5c8.2 5.8 15.9 12.4 24.2 18 0.5 0.4 1-0.4 0.6-0.8-6.2-7.3-15.6-14.1-24.2-18.2-0.7-0.4-1.3 0.6-0.6 1z"/>
						</g>
					</g>
				</g>
				<g id="&lt;Group&gt;">
					<g id="&lt;Group&gt;">
						<path id="&lt;Path&gt;" class="s13" d="m218.1 827c0 0 93.3-133.3 62.2-160.4-31.1-27.1-72.9 72.4-62.2 160.4z"/>
					</g>
					<g id="&lt;Group&gt;">
						<g id="&lt;Group&gt;">
							<path id="&lt;Path&gt;" class="s14" d="m270.4 681.7c-18.6 28.2-32.1 59.5-41.6 91.9-7.8 26.8-14.1 55.6-15 83.6-0.1 0.7 1 0.8 1.1 0.2 2.1-13.3 3.4-26.6 5.8-39.8q4-21.6 10-42.6c9.5-32.6 23.2-63.7 41-92.6 0.4-0.8-0.8-1.5-1.3-0.7z"/>
						</g>
					</g>
					<g id="&lt;Group&gt;">
						<g id="&lt;Group&gt;">
							<path id="&lt;Path&gt;" class="s15" d="m220.8 763.2c-0.5 10.6-0.2 22.8 2.2 33.2 0.1 0.6 1 0.4 1-0.2 0.2-5.1-0.5-10.4-0.8-15.5-0.4-5.8-0.6-11.7-1.2-17.5-0.1-0.8-1.2-0.8-1.2 0z"/>
						</g>
					</g>
				</g>
				<g id="&lt;Group&gt;">
					<path id="&lt;Path&gt;" class="s16" d="m210.8 779.7c0 0-93.9-132.8-62.9-160 30.9-27.3 73.2 72 62.9 160z"/>
					<g id="&lt;Group&gt;">
						<g id="&lt;Group&gt;">
							<path id="&lt;Path&gt;" class="s14" d="m156.6 635.4c32.6 52.1 50.7 111.8 56.9 172.8 1.2 12.2 1.8 24.5 2.7 36.8 0 0.7 1.2 0.8 1.2 0 0.6-23.6-2.4-47.6-6.4-70.8-5.2-30.1-13.5-59.8-25.5-87.9-7.7-18-16.9-35.3-27.7-51.7-0.5-0.7-1.7 0-1.2 0.8z"/>
						</g>
					</g>
				</g>
				<g id="&lt;Group&gt;">
					<path id="&lt;Path&gt;" class="s17" d="m205.2 818.5c0 0 57.8-79.4 39.3-96.1-18.5-16.8-44.8 42.9-39.3 96.1z"/>
					<g id="&lt;Group&gt;">
						<g id="&lt;Group&gt;">
							<path id="&lt;Path&gt;" class="s14" d="m238.1 731.2c-14.4 20.9-24.2 44.7-30.3 69.3-4.5 18.3-8.2 38.4-7.4 57.3 0.1 0.8 1.1 0.8 1.2 0 2.4-19.1 3.7-37.9 8.4-56.7 6.1-24.5 15.9-47.8 29.3-69.2 0.5-0.8-0.7-1.5-1.2-0.7z"/>
						</g>
					</g>
				</g>
				<g id="&lt;Group&gt;">
					<path id="&lt;Path&gt;" class="s18" d="m243.9 814.7l-0.4 3-1 6.5-9.2 61.9h-55.1l-9.2-61.9-1-6.5-0.4-3z"/>
					<path id="&lt;Path&gt;" class="s14" d="m243.5 817.7l-1 6.5h-73.5l-1-6.5z"/>
					<path id="&lt;Path&gt;" class="s16" d="m245 820.5h-78.5c-2.5 0-4.6-2-4.6-4.6 0-2.5 2.1-4.5 4.6-4.5h78.5c2.5 0 4.5 2 4.5 4.5 0 2.6-2 4.6-4.5 4.6z"/>
				</g>
			</g>
			<g id="&lt;Group&gt;">
				<path id="&lt;Path&gt;" class="s19" d="m278.4 589.8v40.9c0 0.7-0.2 1.2-0.5 1.7-0.5 0.8-1.4 1.2-2.4 1.2h-60.2c-0.8 0-1.4-0.3-2-0.8v-38c0-1.4 1.2-2.5 2.6-2.5h42.3c1.3 0 2.5-1.1 2.5-2.5 0-1.4 1.1-2.6 2.5-2.6h12.7c1.4 0 2.5 1.2 2.5 2.6z"/>
				<path id="&lt;Path&gt;" class="s20" d="m277.9 632.4c-0.5 0.8-1.4 1.2-2.4 1.2h-60.2c-0.8 0-1.4-0.3-2-0.8-0.2-0.2-0.4-0.5-0.6-0.8q0-0.1-0.1-0.2l-13.4-30.6c-0.6-1.6 0.5-3.4 2.3-3.4h59.6c1 0 1.9 0.6 2.3 1.5l12.5 28.6z"/>
			</g>
			<g id="&lt;Group&gt;">
				<path id="&lt;Path&gt;" class="s21" d="m146.1 887h1207.8"/>
			</g>
			<g id="&lt;Group&gt;">
				<g id="&lt;Group&gt;">
					<path id="&lt;Path&gt;" class="s13" d="m562.9 384.5h-293.3c-1.6 0-2.9-1.3-2.9-2.8v-218.2c0-4.9 4-8.9 9-8.9h276.7c7.4 0 13.3 5.9 13.3 13.2v213.9c0 1.5-1.3 2.8-2.8 2.8z"/>
				</g>
				<path id="&lt;Path&gt;" class="s12" d="m548.6 373.4h-264.4c-3.2 0-5.7-2.6-5.7-5.7v-38.2c0-3.1 2.5-5.7 5.7-5.7h264.4c3.2 0 5.7 2.6 5.7 5.7v38.2c0 3.1-2.5 5.7-5.7 5.7z"/>
				<path id="&lt;Path&gt;" class="s12" d="m550.7 315.7h-268.6c-2 0-3.6-1.7-3.6-3.6v-12.9c0-2 1.6-3.6 3.6-3.6h268.6c2 0 3.6 1.6 3.6 3.6v12.9c0 1.9-1.6 3.6-3.6 3.6z"/>
				<g id="&lt;Group&gt;">
					<path id="&lt;Path&gt;" class="s22" d="m439.1 193.4h-157.4c-2.4 0-4.4-2-4.4-4.5 0-2.4 2-4.4 4.4-4.4h157.4c2.4 0 4.4 2 4.4 4.4 0 2.5-2 4.5-4.4 4.5z"/>
					<path id="&lt;Path&gt;" class="s22" d="m439.1 211.7h-157.4c-2.4 0-4.4-2-4.4-4.4 0-2.5 2-4.5 4.4-4.5h157.4c2.4 0 4.4 2 4.4 4.5 0 2.4-2 4.4-4.4 4.4z"/>
					<path id="&lt;Path&gt;" class="s22" d="m439.1 230h-157.4c-2.4 0-4.4-2-4.4-4.4 0-2.5 2-4.5 4.4-4.5h157.4c2.4 0 4.4 2 4.4 4.5 0 2.4-2 4.4-4.4 4.4z"/>
					<path id="&lt;Path&gt;" class="s22" d="m439.1 248.3h-157.4c-2.4 0-4.4-2-4.4-4.4 0-2.4 2-4.4 4.4-4.4h157.4c2.4 0 4.4 2 4.4 4.4 0 2.4-2 4.4-4.4 4.4z"/>
					<path id="&lt;Path&gt;" class="s22" d="m439.1 266.7h-157.4c-2.4 0-4.4-2-4.4-4.5 0-2.4 2-4.4 4.4-4.4h157.4c2.4 0 4.4 2 4.4 4.4 0 2.5-2 4.5-4.4 4.5z"/>
					<path id="&lt;Path&gt;" class="s22" d="m402.1 285h-120.4c-2.4 0-4.4-2-4.4-4.5 0-2.4 2-4.4 4.4-4.4h120.4c2.4 0 4.4 2 4.4 4.4 0 2.5-2 4.5-4.4 4.5z"/>
				</g>
				<g id="&lt;Group&gt;">
					<path id="&lt;Path&gt;" class="s4" d="m562.7 147h-292.9c-1.7 0-3.1 1.3-3.1 3v22.4h299v-22.4c0-1.7-1.3-3-3-3z"/>
				</g>
				<g id="&lt;Group&gt;">
					<path id="&lt;Path&gt;" class="s12" d="m521.4 159.7c0 1.5-1.3 2.7-2.8 2.7-1.5 0-2.8-1.2-2.8-2.7 0-1.5 1.3-2.8 2.8-2.8 1.5 0 2.8 1.3 2.8 2.8z"/>
					<path id="&lt;Path&gt;" class="s12" d="m535.1 159.7c0 1.5-1.2 2.7-2.8 2.7-1.5 0-2.7-1.2-2.7-2.7 0-1.5 1.2-2.8 2.7-2.8 1.6 0 2.8 1.3 2.8 2.8z"/>
					<path id="&lt;Path&gt;" class="s12" d="m548.8 159.7c0 1.5-1.2 2.7-2.7 2.7-1.6 0-2.8-1.2-2.8-2.7 0-1.5 1.2-2.8 2.8-2.8 1.5 0 2.7 1.3 2.7 2.8z"/>
				</g>
				<g id="&lt;Group&gt;">
					<path id="&lt;Path&gt;" class="s12" d="m554.3 187.4v94.7c0 1.6-1.3 2.9-2.9 2.9h-93.7c-1.6 0-2.9-1.3-2.9-2.9v-94.7c0-1.6 1.3-2.9 2.9-2.9h93.7c1.6 0 2.9 1.3 2.9 2.9z"/>
					<path id="&lt;Path&gt;" class="s23" d="m554.3 264.3v17.8c0 1.6-1.3 2.9-2.9 2.9h-46.5l2-20.7 21.9-24.2z"/>
					<path id="&lt;Path&gt;" class="s4" d="m541.3 285h-83.6c-1.6 0-2.9-1.3-2.9-2.9v-17.8l32.8-34.3z"/>
					<path id="&lt;Path&gt;" class="s4" d="m541.1 211.7c0 6.4-5.1 11.5-11.5 11.5-6.4 0-11.5-5.1-11.5-11.5 0-6.4 5.1-11.5 11.5-11.5 6.4 0 11.5 5.1 11.5 11.5z"/>
				</g>
			</g>
			<g id="&lt;Group&gt;">
				<path id="&lt;Path&gt;" class="s24" d="m695 596.8l-31.3-53.6-49.7 3.9-13.5 12.4c-1.8-2-1.4-1.6-2.7-3.1-10.5-11.8-35.1-31.3-54.5-51.4-22.1-22.8-38.7-45.6-38.7-45.6l-3.9 1.9c0-2.1 0-3.4 0-3.4l-17.5-23.4-21.2-1.4-15.7 19.2 0.8 10.2c0 0 0.3 15.8 12.6 17.4 3.7 0.4 13 2.2 16 4.2 8.4 5.8 15.1 13.8 19.7 22.9 13.9 27.3 34.2 66.1 53.2 99.4 0 0 0.7 1.4 2.2 3.6 6.6 10.5 27.1 41 43.9 42.4 20.3 1.8 100.3-55.6 100.3-55.6z"/>
				<g id="&lt;Group&gt;">
					<path id="&lt;Path&gt;" class="s25" d="m766.2 314c0 0 6.7-10 15.9-12.4 9.2-2.3-10.1 21.4-10.1 21.4 0 0-5.2 2.3-5.8 1.9-0.6-0.4 0-10.9 0-10.9z"/>
					<path id="&lt;Path&gt;" class="s26" d="m937.3 242.8c0 0 65.5 23.5-12.5 91l-11.7-3.5z"/>
					<path id="&lt;Compound Path&gt;" fill-rule="evenodd" class="s24" d="m815.5 441.9c0.2-7.4-0.2-14-0.8-19.9-1.1-9.5-3-16.9-4.5-21.8-1.5-4.8-2.8-7.3-2.8-7.3l101.1-52.2c2.1-6.1 6.5-18.3 11.3-23.4 0 0 5.6-1.1 10.6 6.7 4.6 7.1-3.3 33.7-20.1 30.4-22.5 32.6-21.2 85.5-21.2 85.5l40.5 9c0 0-12.4 40-84.9 41.4 0 0-41.8-6.1-73-44.2zm90.7-94c0.5-1.8 1.2-4.2 2.1-6.7-2.6 3.7-4.9 7.4-7.1 11 0.1 0 2.2-1.8 5-4.3z"/>
					<path id="&lt;Path&gt;" class="s27" d="m810.2 400.2c1.5 4.9 3.4 12.3 4.5 21.8 84.1-18.4 86.5-64 86.5-64l-43.2 17.6z"/>
					<path id="&lt;Path&gt;" class="s25" d="m796.8 214.4c0 0-18.3 34-5.7 56.5l29.2-37.8"/>
					<path id="&lt;Path&gt;" class="s24" d="m764.7 387.4c19.4 30.6 90.5 29.9 123.8-14 33.4-43.8 38.8-94.2 22.1-125.1-9.2-17.2-31.4-27.2-53.2-28.8-5.9-0.4-11.7 0.1-17.4 1.3-13.2 2.9-25.3 10.4-34.3 20.9-0.8 1-1.6 2-2.4 3l-5.1 6.7c-0.7 0.9-1.3 1.8-1.9 2.7-3.2 4.8-5.7 10-7.4 15.5-0.9 2.9-1.6 5.9-2.1 8.8-1.2 8.1-4.3 18.7-11.9 28-14.6 18-29.6 50.4-10.2 81z"/>
					<path id="&lt;Path&gt;" class="s27" d="m805.7 241.7c4.8 2 12.7 4.7 22.6 5.9 16.9 2 51.1 5.4 62.6 17.9 0 0 4.8 4.3 7.6 14.1 2.8 9.8-6.3-33.3-6.3-33.3l-52.1-25.5c-13.3 2.9-25.5 10.4-34.4 20.9z"/>
					<path id="&lt;Path&gt;" class="s27" d="m904.8 293.3c0 0-0.1 44.4-23.6 56.1-23.5 11.7-39.6-2.7-50.3-10.4-6.1-4.4-8.3 6.9-8.3 6.9 0 0 12.2 20.3 18.4 20.3 6.1 0 30.7-0.3 32.6-1.5 1.9-1.2 16-8 16-8 0 0 9.7-16.6 10.4-18.3 0.7-1.8 11.7-20.6 11.2-23-0.5-2.4-0.3-18-0.3-18z"/>
					<path id="&lt;Path&gt;" class="s26" d="m797.5 156.2c-5.5 1.1-10.6 12.4-12.8 17.5-3.3 7.3-9.4 24.8 4.6 44.3 16 22.2 50.6 22.2 76.3 28.8 22.9 5.9 34.3 20.7 32.8 37.5-0.4 4.6 1.2 9.2 4.3 12.7l0.5 0.5c2.8 3.3 4 7.6 3.1 11.9-2.7 13.3-11.1 40.5-31.8 46.6-17.8 5.3-25.1-1.4-28.1-3.7-10.4-7.9-16.2-16.6-36.5-26.5-10.6-5.1-21.9-4.4-36.7-6.6-2.7-0.4-6.6-0.8-7-5.2 0 0-32.3 37.9-9.7 77.2 5.7 9.9 15.1 17.1 26.2 19.7 15.1 3.7 40.3 5.8 69.7-7.4 47.9-21.7 63.7-71.2 70.1-86.8 6.4-15.5 23-57.4 10.6-96-7.6-23.9-31.8-44-71.3-45.8-27.5-1.2-47.9-21.9-64.3-18.7z"/>
					<path id="&lt;Path&gt;" class="s28" d="m828.9 349.3c0 0-0.7 1.3-2.1 3-4.3 5.7-15.7 16.4-35.1 6.9-6-2.9-9.1-6.9-10.6-10.9-2.9-8.4 1.5-17 1.5-17 0 0 7.2 4.7 17 9.3 8.4 4 18.8 7.9 28.2 8.6q0.5 0 1.1 0.1z"/>
					<path id="&lt;Path&gt;" class="s29" d="m828.3 347.5l-0.5 1.7-1 3.1c-4.3 5.7-15.7 16.4-35.1 6.9-6-2.9-9.1-6.9-10.6-10.9 8-7.7 16-7.7 16-7.7h13z"/>
					<path id="&lt;Path&gt;" class="s30" d="m783.6 331.3c0 0-5.5 6.7-5.5 8.6 0 3 35.7 19.8 37.6 19.9 2 0.2 5.3-6.7 5.3-6.7l-14.5-8.6"/>
					<path id="&lt;Path&gt;" class="s26" d="m785.3 258.8c-0.8 1.9-0.1 0.2-0.9 2.9-0.8 2.7 1 5.2 3.7 6.2 6.7 2.4 27 10.4 27 10.4 2.1 1.2 2.1-1.1 1.5-2.4-2.7-5.6-5.4-12.6-24.6-19.1-2.7-0.9-5.5-0.6-6.7 2z"/>
					<path id="&lt;Path&gt;" class="s26" d="m880.7 297.3c-0.7 1.9 0.1 0.2-1.4 2.6-1.4 2.5-4.4 2.9-7 1.6-6.3-3.2-26.1-12.4-26.1-12.4-2.4-0.7-0.7-2.3 0.7-2.8 5.9-1.9 12.8-4.7 30.7 4.7 2.5 1.4 4.2 3.6 3.1 6.3z"/>
					<path id="&lt;Path&gt;" class="s26" d="m775.3 332.6c0 0 11.3 14.3 26.9 9.9 0 0 0.2 11.7 26.4 15.6l2.3-9.2c0 0-16.9-9-18-8.3-1.1 0.6-17.2-4.3-20.2-4.9-3.1-0.6-13.6-8.8-13.6-8.8z"/>
					<path id="&lt;Path&gt;" class="s27" d="m922.2 326.4c0 0-9.5 13.6-8 19.5 0 0 0.3-3.5 9.1-3.4 0 0 5.7-7.9 2.8-13.8-1.4-2.9-3.9-2.3-3.9-2.3z"/>
					<g id="&lt;Group&gt;">
						<g id="&lt;Group&gt;">
							<path id="&lt;Path&gt;" class="s31" d="m847.1 301.6c-3 4.9-4.3 10.2 0.6 14.1 1.6 1.2 4.3 0.7 5.7-0.6 2.4-2.4 2.8-3.5 4.3-6.3 3.3-6.3-6.8-13.4-10.6-7.2z"/>
						</g>
						<g id="&lt;Group&gt;">
							<path id="&lt;Path&gt;" class="s12" d="m847.9 304.4c-0.8 1.3-1.1 2.7 0.1 3.7 0.5 0.4 1.2 0.2 1.5-0.1 0.7-0.6 0.5-1.3 0.9-2 0.9-1.7-1.5-3.2-2.5-1.6z"/>
						</g>
					</g>
					<g id="&lt;Group&gt;">
						<g id="&lt;Group&gt;">
							<path id="&lt;Path&gt;" class="s31" d="m794.8 283.9c-2.5 3.8-3.6 8 0.2 11.2 1.2 1 3.4 0.6 4.5-0.4 2-1.8 2.2-3.3 3.4-5.4 2.8-5-5-10.2-8.1-5.4z"/>
						</g>
						<g id="&lt;Group&gt;">
							<path id="&lt;Path&gt;" class="s12" d="m795.4 286.2c-0.7 1-1 2.1 0 2.9 0.3 0.3 0.9 0.2 1.2-0.1 0.5-0.4 0.4-1 0.7-1.5 0.7-1.3-1.1-2.6-1.9-1.3z"/>
						</g>
					</g>
				</g>
				<path id="&lt;Path&gt;" class="s24" d="m505.3 460.5c0 0-25.1-53.9-42.6-66.6 0 0-6.1 1-5.4 8.5 0.7 7.5 11.3 16.7 11.8 23.7 0.5 7-4.2 6-10 4.7-5.8-1.4-48.6-25.2-52.9-23.1-4.3 2.1 0.2 6.6 3.2 9 3 2.4 25.9 16.8 25.9 16.8 0 0-41.2-22.6-44.3-14.8-2 5.1 36.3 24.8 36.3 24.8 0 0-32.9-18.5-34.4-11.6-1.3 5.8 26.6 18.9 26.6 18.9 0 0-17.3-9-18.6-5.1-1.6 5.1 22.3 18.1 29.3 22.6 6.9 4.5 23.8 11.8 30.5 11.6 6.7-0.2 11.7-0.8 15.3 2.9"/>
				<path id="&lt;Path&gt;" class="s12" d="m964.2 575.8l13.8 51.2h-251.4c0-13.2-0.7-29-1.7-44.6l-54.1 33.1c-17.7-35-56.2-68.4-56.8-68.4 37.6-36.8 83.6-78.5 108.7-95.9 12-8.4 69.6-11.7 77.1-12.5 6.5-0.6 12.3-4.5 15.4-10.2 0 0 8.1 18.6 21.1 25.4 3.6 1.4 3.9 22.6 8.4 22.4 1.3 0 11-22.1 12.3-22.3 0 0 15.4-2.6 32.5-28.4l3.1 4.2c2.8 3.8 6.8 6.5 11.4 7.6 8.7 2.1 24.4 6.2 39.7 12.4 21.6 8.7 45.3 50.1 45.3 50.1l5.3 75.9-31.6-1.4z"/>
				<path id="&lt;Path&gt;" class="s32" d="m941 562.8l6 64.2h31l-5.5-41.8z"/>
				<path id="&lt;Path&gt;" class="s24" d="m1033.5 552.7l28 74.3h-83.5l-13.8-30.2"/>
				<path id="&lt;Path&gt;" class="s12" d="m911.2 439.2c0 0 64 9.3 83.1 28.3 9.6 9.5 17.4 27.7 29.4 55 19.5 44.7 28.8 69 28.8 69 0 0-48.5 33.7-97 23.7l-23.8-68.5z"/>
				<path id="&lt;Path&gt;" class="s33" d="m816.4 295.1c-4.1 10.4-15.1 15.7-24.4 12-9.3-3.8-13.5-15.3-9.3-25.6 4.2-10.4 15.1-15.7 24.4-12 9.4 3.8 13.5 15.3 9.3 25.6z"/>
				<path id="&lt;Path&gt;" class="s33" d="m865.8 315.1c-4.2 10.4-15.2 15.8-24.5 12-9.3-3.8-13.5-15.2-9.3-25.6 4.2-10.4 15.1-15.7 24.5-11.9 9.3 3.7 13.5 15.2 9.3 25.5z"/>
				<path id="&lt;Path&gt;" class="s33" d="m816.9 293.7c0 0 11-1.1 15.1 7.8"/>
				<path id="&lt;Path&gt;" class="s34" d="m866.5 313.2l56 3.5"/>
				<path id="&lt;Path&gt;" class="s32" d="m740.3 627h-13.7c0-13.2-0.7-29-1.7-44.6l11.1-6.2c0 0 4.7 36.7 4.3 50.8z"/>
				<path id="&lt;Path&gt;" class="s35" d="m822.6 299.2c0 0-14.6 11.3-16.2 17.2-0.9 3.5 4.9 7.3 4.9 7.3"/>
			</g>
			<g id="&lt;Group&gt;">
				<path id="&lt;Path&gt;" class="s24" d="m420.3 692.6c0 0 6 20.9-16.5 20.9-3.1 0-5.8-0.8-8.1-1.9-8.3-4-10.2-17.9-10.2-17.9 7-1.8 4.5-12 4.5-12l25 0.6c0 0-1.3 6.5 0.6 8.4 3.1 3.2 4.7 1.9 4.7 1.9z"/>
				<path id="&lt;Path&gt;" class="s20" d="m386.9 692.1c0 0-1.5 18.5 16 18.5 15.8 0 16-12.3 14.8-19 18 1.6 37.7 8.9 47.8 17.1 11.9 15.5 20.2 39.1 20.2 39.1 0 0-5.7 2.6-11.2 4.3-5.9 1.7-10.2 4.4-10.2 4.4l-7.1 95.4h-110.3l-1.9-95.4c0 0-7.3-1.8-13.1-3.7-8.6-2.8-11.8-5.5-11.8-5.5 0 0 6.6-19.6 16.6-35.7 10.1-9.3 29.1-17.1 50.2-19.5z"/>
				<path id="&lt;Path&gt;" class="s24" d="m322 748.4c0 0-10.5 37.2-9.5 55 0.9 17.8 43 42.7 43 42.7l5.5-18.8c0 0-17.5-7.4-20.1-21-2.6-13.6 12.1-47.7 12.1-47.7 0 0-6.5-1.9-15.3-4.3-8.6-2.4-15.7-5.9-15.7-5.9z"/>
				<path id="&lt;Path&gt;" class="s24" d="m484.4 748.4c0 0 10.6 37.2 9.6 55-1 17.8-43 42.7-43 42.7l-5.5-18.8c0 0 17.4-7.4 20-21 2.6-13.6-12.6-48.5-12.6-48.5 0 0 7-1.6 15.9-4 8.6-2.4 15.6-5.4 15.6-5.4z"/>
				<g id="&lt;Group&gt;">
					<path id="&lt;Path&gt;" class="s36" d="m470.7 853.5h-136.4l-3.1-85.5c-0.1-2.2 1.7-4 3.9-4h134.8c2.2 0 4 1.8 3.9 4z"/>
				</g>
				<g id="&lt;Group&gt;">
					<path id="&lt;Path&gt;" class="s37" d="m459.8 873c0 0 2.9-3.4 9.6-3.6 4.4-0.1 16.8 2.7 22.7 2.6 5.9-0.1 12.1-1.4 15.5 3.6 5.8 8.6 3.3 16.3-6.4 17.5-5.3 0.6-9.7-2.8-18-2-8.2 0.8-20.8-1.9-24.5-7.7"/>
					<path id="&lt;Path&gt;" class="s24" d="m448.3 869c0 0 6.6 1.9 10.9 2.1 4.3 0.3 14.1-0.8 18.5 2 4.7 2.9 3 11.1 0 13-4.9 3.1-8.9 1.5-17.8-1.3-8.9-2.8-19.4-1.8-19.4-1.8"/>
					<g id="&lt;Group&gt;">
						<path id="&lt;Path&gt;" class="s38" d="m461.6 888.5c0 0-101.1-1.8-128.1-5.4-11.3-1.5-21.9-3.9-30.8-7.5-12.1-7.2-16.5-24.4-8.3-40.3 3.8-7.4 15.7-6 17.3-6q0.7 0 0.7 0c32.8 1.3 62.6 9.7 96.4 23.1 31.4 12.6 55.4 17.8 55.4 17.8 1.8 12.9-2.6 18.3-2.6 18.3z"/>
					</g>
					<path id="&lt;Path&gt;" class="s37" d="m486 877.4c0 0-2.7-1.5-3.6 0.1-0.9 1.6-1.4 8.5-0.9 9.5 0.8 1.9 4.8 1.2 4.8 1.2l3.2-8.6z"/>
				</g>
				<g id="&lt;Group&gt;">
					<path id="&lt;Path&gt;" class="s39" d="m347.2 873.2c0 0-3-3.6-10-3.8-4.6-0.2-17.5 2.7-23.6 2.6-6.1-0.1-12.2-1.5-16.1 2.6-7.4 7.8-0.5 17.6 9.6 18.8 5.4 0.7 7-2.5 15.7-1.6 8.5 0.9 21.6-1.9 25.5-7.9"/>
					<path id="&lt;Path&gt;" class="s24" d="m359.1 869.1c0 0-6.8 1.9-11.3 2.1-4.5 0.2-14.6-0.9-19.2 1.9-5 3.1-3.2 11.6 0 13.6 5 3.2 9.1 1.6 18.4-1.3 9.3-2.9 20.1-1.8 20.1-1.8"/>
					<g id="&lt;Group&gt;">
						<path id="&lt;Path&gt;" class="s40" d="m504.8 875.2v0.1c-9.2 3.9-20.5 6.6-32.6 8.1-26.9 3.5-128.1 4.9-128.1 4.9 0 0-4.4-5.4-2.6-18.3 0 0 24.1-5.1 55.6-17.5 33-13.1 62.3-21.3 94.2-22.8 6.3 0.7 13.5 3.4 18.6 14.1 6.8 14.1 1.5 28.9-5.1 31.4z"/>
					</g>
					<path id="&lt;Path&gt;" class="s39" d="m325.7 874.2c0 0 3.4-1.9 4.5 0.2 1.2 2 1.7 10.7 1.1 12.1-1 2.4-6 1.5-6 1.5l-4.1-11.1z"/>
				</g>
				<path id="&lt;Path&gt;" class="s41" d="m431.8 633.1c0 0 9.4-0.9-1.2 23.4-4 9.1-5.5 8.5-5.5 8.9-0.1 0.5-3.6-3-3.6-4.5 0-1.6 0.1-13.6 0.3-14.2 0.1-0.6 10-13.6 10-13.6z"/>
				<path id="&lt;Path&gt;" class="s41" d="m376.6 638.7c0 0-7.3-2-4.4 12.4 2 9.8 7.2 13.9 7.3 14.3 0 0.5 3.5-3 3.5-4.5 0-1.6-0.1-13.6-0.3-14.2-0.1-0.6-6.1-8-6.1-8z"/>
				<path id="&lt;Path&gt;" class="s42" d="m378.6 656.8c0 0-3.1-3-4 1-0.8 4 2.4 14.2 6.5 10.3"/>
				<path id="&lt;Path&gt;" class="s42" d="m426.1 656.8c0 0 3-3 3.9 1 0.9 4-2.3 14.2-6.4 10.3"/>
				<path id="&lt;Path&gt;" class="s24" d="m403.3 688.3q0 0-0.3 0c-2.8 0.2-28.2 0.5-25-45.7h48.4c0 0 5.8 43-23.1 45.7z"/>
				<path id="&lt;Path&gt;" class="s41" d="m419.8 616.7c9.1 2.7 15 14.2 10.5 23.4-4.5 9.1-19 14.4-35.2 10.9-9.5-2-12.6-5.8-18.3-5.5-4.4 0.2-8.4-2.5-10-6.6-2-5.6-3.3-13.2 2.5-17.7 15.8 4.5 36.8-8.5 50.5-4.5z"/>
				<g id="&lt;Group&gt;">
					<path id="&lt;Path&gt;" class="s43" d="m410.3 806c0 4.8-3.9 8.8-8.8 8.8-4.8 0-8.7-4-8.7-8.8 0-4.9 3.9-8.8 8.7-8.8 4.9 0 8.8 3.9 8.8 8.8z"/>
				</g>
				<path id="&lt;Path&gt;" class="s44" d="m390.4 684.6c0 0 1.4 0.9 3.6 1.7 2.2 0.9 5.4 1.6 8.5 1.4 1.6 0 3.1-0.3 4.6-0.6 1.5-0.4 2.8-0.8 3.9-1.2 2.3-0.9 3.7-1.7 3.7-1.7 0 0-1.2 1.2-3.4 2.3-1.1 0.6-2.4 1.2-3.9 1.6-1.5 0.5-3.2 0.8-4.8 0.9-1.7 0-3.4-0.1-4.9-0.5-1.5-0.4-2.9-1-4-1.5-2.2-1.2-3.3-2.4-3.3-2.4z"/>
				<g id="&lt;Group&gt;">
					<g id="&lt;Group&gt;">
						<path id="&lt;Path&gt;" class="s31" d="m392.1 662.1c0.2 1.7 0.3 3.6-1.5 3.8-0.8 0.1-1.6-0.5-1.8-1-0.4-1-0.2-1.5-0.2-2.4-0.1-2.1 3.3-2.5 3.5-0.4z"/>
					</g>
					<g id="&lt;Group&gt;">
						<path id="&lt;Path&gt;" class="s12" d="m391.3 663.5c0.1 0.4 0 0.8-0.4 1-0.2 0-0.4-0.1-0.4-0.2-0.1-0.2 0-0.4-0.1-0.6 0-0.6 0.8-0.8 0.9-0.2z"/>
					</g>
				</g>
				<g id="&lt;Group&gt;">
					<g id="&lt;Group&gt;">
						<path id="&lt;Path&gt;" class="s31" d="m414.3 662.1c0.2 1.7 0.3 3.6-1.5 3.8-0.8 0.1-1.6-0.5-1.8-1-0.4-1-0.2-1.5-0.2-2.4-0.1-2.1 3.3-2.5 3.5-0.4z"/>
					</g>
					<g id="&lt;Group&gt;">
						<path id="&lt;Path&gt;" class="s12" d="m413.5 663.5c0.1 0.4 0 0.8-0.4 1-0.2 0-0.4-0.1-0.4-0.2-0.1-0.2 0-0.4-0.1-0.6 0-0.6 0.8-0.8 0.9-0.2z"/>
					</g>
				</g>
				<path id="&lt;Path&gt;" class="s26" d="m417 656c0.1 0.4 0 0.1 0.1 0.6 0.1 0.6-0.5 0.9-1.2 0.9-1.8 0.1-7.4 0.3-7.4 0.3-0.6 0.1-0.5-0.3-0.3-0.5 0.9-0.9 1.9-2 7.2-2 0.7 0 1.4 0.2 1.6 0.7z"/>
				<path id="&lt;Path&gt;" class="s26" d="m386 656c-0.1 0.4 0 0.1-0.1 0.6-0.1 0.6 0.4 0.9 1.2 0.9 1.8 0.1 7.4 0.3 7.4 0.3 0.6 0.1 0.5-0.3 0.3-0.5-0.9-0.9-1.9-2-7.2-2-0.7 0-1.4 0.2-1.6 0.7z"/>
				<path id="&lt;Path&gt;" class="s45" d="m401.5 665.2c0 0-2.1 4.6-1.4 5.6 0.6 0.9 3.2 0.9 3.2 0.9"/>
				<path id="&lt;Path&gt;" class="s46" d="m395.9 678.5c0 0 6.7 4 12.7-0.3"/>
			</g>
			<g id="&lt;Group&gt;">
				<g id="&lt;Group&gt;">
					<g id="&lt;Group&gt;">
						<g id="&lt;Group&gt;">
							<path id="&lt;Path&gt;" class="s12" d="m916.7 880.1v-180.2c0-0.4-0.3-0.7-0.7-0.7h-4.4c-0.4 0-0.7 0.3-0.7 0.7v180.2c-1.1 0.2-2 1.2-2 2.4 0 1.5 1.2 2.6 2.6 2.6h4.7c1.4 0 2.5-1.1 2.5-2.6 0-1.2-0.8-2.2-2-2.4z"/>
						</g>
						<g id="&lt;Group&gt;">
							<path id="&lt;Path&gt;" class="s12" d="m1274.2 879.9h-0.2v-180.7h-5.8v180.7h-0.1c-1.1 0-1.9 0.9-1.9 1.9v1.5c0 1 0.8 1.8 1.9 1.8h6.1c1 0 1.8-0.8 1.8-1.8v-1.5c0-1-0.8-1.9-1.8-1.9z"/>
						</g>
					</g>
					<g id="&lt;Group&gt;">
						<path id="&lt;Path&gt;" class="s47" d="m1319.5 701h-459.5c-3 0-5.4-2.5-5.4-5.5 0-3 2.4-5.4 5.4-5.4h459.5c3 0 5.5 2.4 5.5 5.4 0 3-2.5 5.5-5.5 5.5z"/>
					</g>
				</g>
				<path id="&lt;Path&gt;" class="s20" d="m1105 684.1h-132.6l-26.3-82.5c-1.3-4.2 1.8-8.4 6.1-8.4h119.2c2.8 0 5.3 1.8 6.1 4.4z"/>
				<path id="&lt;Path&gt;" class="s12" d="m1102.3 684.1h-125.6l-26.4-83.8c-0.5-1.6 0.7-3.2 2.3-3.2h120.3c1.2 0 2.3 0.8 2.6 1.9z"/>
				<path id="&lt;Path&gt;" class="s48" d="m1023.2 610.2h-57.9c-0.8 0-1.5-0.7-1.5-1.6 0-0.9 0.7-1.6 1.5-1.6h57.9c0.8 0 1.5 0.7 1.5 1.6 0 0.9-0.7 1.6-1.5 1.6z"/>
				<path id="&lt;Path&gt;" class="s48" d="m1032.1 617.4h-64.5c-0.8 0-1.5-0.7-1.5-1.6 0-0.9 0.7-1.6 1.5-1.6h64.5c0.9 0 1.6 0.7 1.6 1.6 0 0.9-0.7 1.6-1.6 1.6z"/>
				<path id="&lt;Path&gt;" class="s48" d="m1026.2 624.6h-56.2c-0.9 0-1.6-0.7-1.6-1.6 0-0.8 0.7-1.5 1.6-1.5h56.2c0.8 0 1.5 0.7 1.5 1.5 0 0.9-0.7 1.6-1.5 1.6z"/>
				<path id="&lt;Path&gt;" class="s48" d="m1016.8 631.8h-44.5c-0.9 0-1.6-0.7-1.6-1.6 0-0.8 0.7-1.5 1.6-1.5h44.5c0.9 0 1.6 0.7 1.6 1.5 0 0.9-0.7 1.6-1.6 1.6z"/>
				<path id="&lt;Path&gt;" class="s48" d="m1039.1 639h-64.5c-0.8 0-1.5-0.7-1.5-1.5 0-0.9 0.7-1.6 1.5-1.6h64.5c0.9 0 1.6 0.7 1.6 1.6 0 0.8-0.7 1.5-1.6 1.5z"/>
				<path id="&lt;Path&gt;" class="s48" d="m1033.1 646.2h-56.2c-0.8 0-1.5-0.7-1.5-1.5 0-0.9 0.7-1.6 1.5-1.6h56.2c0.9 0 1.6 0.7 1.6 1.6 0 0.8-0.7 1.5-1.6 1.5z"/>
				<path id="&lt;Path&gt;" class="s48" d="m1046.1 660.7h-64.6c-0.8 0-1.5-0.7-1.5-1.6 0-0.9 0.7-1.6 1.5-1.6h64.6c0.8 0 1.5 0.7 1.5 1.6 0 0.9-0.7 1.6-1.5 1.6z"/>
				<path id="&lt;Path&gt;" class="s48" d="m1048.4 667.9h-64.5c-0.9 0-1.6-0.7-1.6-1.6 0-0.8 0.7-1.5 1.6-1.5h64.5c0.9 0 1.6 0.7 1.6 1.5 0 0.9-0.7 1.6-1.6 1.6z"/>
				<path id="&lt;Path&gt;" class="s48" d="m1082.7 667.9h-20.8c-2 0-3.7-1.3-4.3-3.1l-17.4-55c-0.9-2.9 1.3-5.8 4.3-5.8h20.8c2 0 3.7 1.2 4.3 3.1l17.4 55c0.9 2.9-1.3 5.8-4.3 5.8z"/>
				<path id="&lt;Path&gt;" class="s20" d="m1116.1 690.1h-144.2c-2.4 0-4.3-1.9-4.3-4.2 0-2.4 1.9-4.3 4.3-4.3h144.2c2.4 0 4.3 1.9 4.3 4.3 0 2.3-1.9 4.2-4.3 4.2z"/>
				<g id="&lt;Group&gt;">
					<path id="&lt;Compound Path&gt;" fill-rule="evenodd" class="s49" d="m1130.4 579.8c-1 0-2.1-0.5-2.7-1.5l-4.2-7.4c-0.4-0.7-0.5-1.6-0.3-2.4 0.3-0.9 0.8-1.5 1.6-1.9l11.6-6.2c1.5-0.8 3.4-0.2 4.3 1.3l3.9 7.3c0.4 0.7 0.5 1.6 0.3 2.4-0.3 0.8-0.8 1.5-1.5 1.9l-11.5 6.2q-0.7 0.3-1.5 0.3zm7.5-18.3q-0.4 0-0.8 0.2l-11.6 6.1c-0.4 0.3-0.7 0.6-0.9 1.1-0.1 0.4 0 0.9 0.2 1.3l4.2 7.3c0.4 0.8 1.4 1.1 2.2 0.7l11.5-6.2c0.4-0.2 0.7-0.6 0.8-1 0.1-0.5 0.1-0.9-0.1-1.3l-4-7.3c-0.3-0.6-0.9-0.9-1.5-0.9z"/>
				</g>
				<path id="&lt;Path&gt;" class="s24" d="m1108.5 644c-0.9 1.2-1.6 1.9-1.6 1.9 0 0-7-5.3-9-5.8-1.9-0.4-6.1 0.7-8.4 1.2-3.9 0.8-2.3-2.3-2.3-2.3 0 0-2.5 0.9-4.8 1.8-2.5 1-5.2 3.2-6 3.4-1.5 0.3-2.9-0.4-1.5-2.5 1.9-2.9 11.1-11.3 13.4-12.4 2.9-1.4 6.8-3.4 10-2.2 3.2 1.2 13.6 8.9 13.6 8.9 0.3 2.7-1.8 6-3.4 8z"/>
				<path id="&lt;Path&gt;" class="s50" d="m1105.8 645.9c0 0 34.3 30 60 33.1 25.6 3 68.9-45.7 68.9-45.7 0 0-2.7-25.9-18.7-22.8-16 3-37.5 41.6-46.8 43.4-9.3 1.8-57.6-18.7-57.6-18.7 0 0-1.4 1-3 3.7-1.7 2.9-2.8 7-2.8 7z"/>
				<path id="&lt;Path&gt;" class="s24" d="m1182.1 528.7c-8.2-9.3-20.3-10.4-29.6-9.3-12.3 1.3-22.9 9.6-26.5 21.4-1.5 5.1-1.8 11.1 0.6 17.7 7.6 21 15.7 32.6 21.9 38.3 2.7 2.5 8.5-0.9 14.3-2.9 0.8-0.3 1.6 0 2 0.7l3.3 6.1 23.9-4.9c0 0-3.6-7.5-5-13.8 3.1-4 10-36.1-4.9-53.3z"/>
				<path id="&lt;Path&gt;" class="s51" d="m1138.6 558.7c2.7-0.2 5.2 1.2 6.2 3.7 1.8 4.2 4.5 10.1 6.7 12 0.4 0.4 1.4 0.6 2.3 0 1-0.4 1.2-1.3 1.1-1.8-0.2-1.8-1.5-5.7-2.5-8.4-1.2-3.3 0.3-6.9 4.3-7.8 0.7-0.2 2.5-0.1 3.5 0.2 6.3 2 2 11.9 1.8 17.1-0.1 3.7 4.3 12.2 6.3 13 6.4 2.5 16.1 0.2 21.2-6.1 5.2-6.4 6.3-27.6 3.5-40.3-2.9-12.7-13-19.8-16.4-20.7-1.6-0.4-3-0.4-4-0.3-1 0.1-2-0.2-2.8-0.9-3.3-2.9-13.5-9.6-29.4-2.7-20 8.6-23.4 27-23 35.3 0.2 5.5 4.5 5.1 7.5 4.1 1.6-0.5 3.4-0.1 4.6 1 1.7 1.4 4.6 3 9.1 2.6z"/>
				<path id="&lt;Path&gt;" class="s50" d="m1164 604c0 0-2.1-2.4-1.3-3.8 1-1.8 11.8-10.4 24.5-10 1.9 0.1 4.3 0.1 6.7 5.2 2.3 5.2 2.9 8.6 2.9 8.6z"/>
				<path id="&lt;Path&gt;" class="s52" d="m1220.4 757q-1.2 0.3-2.5 0.6c-10.7 2-28.2 2.2-28.2 2.2-34.4-0.6-49.7-19.2-55.3-28.8-2-3.3-2.8-5.6-2.8-5.6 2-1 8.9-7.3 11.5-15.8 2.6-8.5-0.2-28.9-4.6-36.7-2.5-4.2-9.7-12.9-14.3-22-3.7-7.5-5.6-15.3-1.5-21.2 10.1-14.9 26.1-22.8 26.1-22.8 0 0 29.3-11.7 54.2-9.1 15.9 1.7 30 9.1 33.7 29.1 9.7 51.3-16.3 130.1-16.3 130.1z"/>
				<path id="&lt;Path&gt;" class="s24" d="m1148.3 858.7c0 0-2.5 2.9-6.2 3.5-4.1 0.6-7.2-1.4-7.2-1.4l-1.9-5.5 13.2-2.9z"/>
				<path id="&lt;Path&gt;" class="s24" d="m1079.1 865.5c0 0-2.9 2.5-6.7 2.5-4.2 0-6.9-2.5-6.9-2.5l-1-5.7h13.6z"/>
				<path id="&lt;Path&gt;" class="s49" d="m1148.3 852.4c-0.9 0.4-3.5 1.5-4.5 1.9-4.9 1.6-12.1 3.1-12.1 3.1-11.3-24.6-29.8-86.4-29.8-86.4-2.6-10.9 5.1-15.3 12-15.7 2.3-0.2 4.6 0.2 6.3 0.9 6.5 2.8 16.1 21.2 16.1 21.2 0 0 2.9 6.4 5.9 19.6 3.1 13.2 6.1 55.4 6.1 55.4z"/>
				<path id="&lt;Path&gt;" class="s53" d="m1173.9 758.1c0 6.2-1.7 16.1-11 18.9-13.9 4.2-24.1 1.8-40.2-1-13.5-2.3-34.8-10.2-41.3-12.7-0.9-0.3-0.7 0.1-0.6 1 3.1 15.1-1.9 96.4-1.9 96.4 0 0-2.2 0.7-4.6 1.1-0.9 0.1-1.8 0.2-2.6 0.2-3.5 0-9.9-0.6-9.9-0.6 0 0-12.4-57.3-14.3-89.4-2-32 0-37 15.2-42.3 16.9-5.9 68.9-4.3 68.9-4.3 0.2 0.6 3.9 10.6 14.7 19.7 6.4 5.4 15.4 10.4 27.6 13z"/>
				<g id="&lt;Group&gt;">
					<path id="&lt;Path&gt;" class="s54" d="m1189.7 790.7v82.3c0 2.9-2.4 5.3-5.3 5.3-1.2 0-2.3-0.4-3.2-1-1.3-1-2.1-2.6-2.1-4.3v-82.3z"/>
					<path id="&lt;Path&gt;" class="s55" d="m1189.7 794.3v78.5c0 2.5-2 5.1-4.6 5.4-1.2 0.2-2.4-0.1-3.4-0.6-0.1-0.3-0.3-0.7-0.5-1v-80.2c0-1.2 1-2.1 2.2-2.1z"/>
					<path id="&lt;Path&gt;" class="s54" d="m1196.4 787.9q0 0.6-0.1 1.1c-0.2 0.9-0.7 1.6-1.2 2.1-0.8 0.9-2 1.4-3.3 1.4h-15.8c-2.5 0-4.6-2.1-4.6-4.6 0-1.2 0.6-2.4 1.4-3.2 0.8-0.8 2-1.4 3.2-1.4h15.8c2.6 0 4.6 2.1 4.6 4.6z"/>
					<path id="&lt;Path&gt;" class="s55" d="m1196.3 789c-0.2 0.9-0.7 1.6-1.2 2.1-0.8 0.9-2 1.4-3.3 1.4h-15.1c0.2-0.8 0.6-1.6 1.2-2.1 0.8-0.8 2-1.4 3.2-1.4z"/>
					<path id="&lt;Path&gt;" class="s56" d="m1252.8 644.3c0 0.1 0 0.1 0 0.1q-0.1 0.8-0.3 1.6c-1.3 5.4-5.9 15.9-6.5 31.7-0.4 9.6 0 35.3-0.5 50.9q0 0 0 0-0.1 3.5-0.2 6.2c-0.9 13.7-5.6 34.1-19.9 44.4-14.6 11-43.9 9.1-61.7 8.7-17.8-0.5-61.9-8.5-65.5-15-0.8-1.5-1-2.8-0.8-3.8q0 0 0-0.1c0.2-1 0.7-1.8 1.4-2.5 1.6-1.6 4.2-2.2 6.5-1.6 7.2 1.8 28.6 5.9 38.2-6.3 11.6-14.8 10.2-31.8 15.2-67.8 4.7-34.1 15.3-44.5 32.9-51.3 18.8-7.2 49-4.1 56.5-1.9 2.9 0.9 5 3.7 4.7 6.7z"/>
					<path id="&lt;Path&gt;" class="s55" d="m1246 883.1c0 1.1-0.9 2-2 2h-119.3c-1.1 0-1.9-0.9-1.9-2 0-0.9 0.7-1.7 1.6-1.9l60-9.7 15.1 2.4 44.8 7.3c1 0.2 1.7 1 1.7 1.9z"/>
				</g>
				<path id="&lt;Path&gt;" class="s49" d="m1065.5 865.5c0 0 3.6 1.5 6.9 1.5 3.9 0 6.7-1.5 6.7-1.5 0 0 6.9 8.9 3.3 18.7-0.2 0.6-0.7 0.9-1.3 0.9h-46.6c-0.6 0-1.1-0.5-1.1-1 0-1.2 0.5-3 3.3-3.9 4.3-1.3 8.8-2 12.1-3.2 3.3-1.2 8.1-6.1 10.8-7 3.4-1.1 5.9-4.5 5.9-4.5z"/>
				<path id="&lt;Path&gt;" class="s49" d="m1134.9 860.8c0 0 3.8 0.9 7 0.4 3.8-0.7 6.4-2.5 6.4-2.5 0 0 8.3 7.6 6.2 17.9-0.1 0.6-0.5 1-1.1 1.1 0 0-24.6 5.5-32.9 6.7-5.1 0.7-13.1 0.7-13.1 0.7-0.6 0-1.1-0.3-1.2-0.9-0.2-1.1 0-3 2.6-4.3 4.1-2 8.3-3.4 11.4-5.1 3.1-1.7 7.1-7.3 9.6-8.6 3.1-1.6 5.1-5.4 5.1-5.4z"/>
				<path id="&lt;Path&gt;" class="s24" d="m1041.3 685.6c0 0-4.7-2-7.2-2.8-1-0.4-2-0.6-2.7-0.8-1.1-0.3-2.2-0.4-3.3-0.4h-27.2c-0.8 0-1.4-0.6-1.4-1.4 0-1.1 0.5-2.1 1.4-2.6l2.9-1.9 8.7-5.6c4.4-2.8 7.5-3 12.6-2.5 1 0 4.7 1.6 5.4 1.8 5.1 1.7 6.2 2.5 9.5 3.7 1.4 0.5 2.3 0.7 2.9 0.8 0.9 0.2 1.2 0.2 1.2 0.2 0.9 6.9-2.8 11.5-2.8 11.5z"/>
				<path id="&lt;Path&gt;" class="s52" d="m1147.7 620.7c-3.6-2.1-14.3-8.1-28.2 13.5-13.9 21.7-18.2 30.9-22.2 37.6-4.8 2.9-53.7 1.7-53.7 1.7 0 0-3 6.5-3.6 12.1 0 0 26 12.9 60.5 15.4 26.7 0 54.2-52.2 55.4-58.7 1.3-6.5 0.3-16.4-8.2-21.6z"/>
				<g id="&lt;Group&gt;">
					<path id="&lt;Path&gt;" class="s49" d="m1125.2 574.9c-0.3 0-0.5-0.2-0.7-0.4-0.2-0.4 0-0.8 0.3-1l27.1-13.9c3-1.5 9.3-4.7 14 2.1 0.2 0.3 0.1 0.8-0.2 1-0.4 0.2-0.8 0.1-1-0.2-3.7-5.3-8-3.7-12.1-1.6l-27.1 13.9q-0.2 0.1-0.3 0.1z"/>
				</g>
				<path id="&lt;Path&gt;" class="s24" d="m1151.8 561.1l3.6 11.4c0 0 2.8 2.6 5.4-0.4 2.7-3.1 5-13.8 0.1-15.6-4.9-1.8-7.8 0.7-9.1 4.6z"/>
				<path id="&lt;Path&gt;" class="s57" d="m1251.7 640.3q0-0.1 0-0.1c-0.9-1.2-2.1-2.1-3.6-2.6-7.5-2.2-37.7-5.3-56.5 1.9-17.6 6.8-28.2 17.2-32.9 51.3-5 36-3.6 53-15.2 67.8-9.6 12.2-31 8.1-38.2 6.3-2.3-0.6-4.9 0-6.5 1.6-0.7 0.7-1.2 1.5-1.4 2.6-0.2 1 0 2.3 0.8 3.8 3.6 6.5 47.7 14.5 65.5 15 17.8 0.4 47.1 2.3 61.7-8.7 14.3-10.3 19-30.7 19.9-44.4q0.1-2.7 0.2-6.2c-0.3 1.3-10.1 29-44.9 22.6-33.4-6.1-36.4-42.8-35.2-55.1q0.2-2.1 0.4-3.9c0.3-2.3 2.2-11.9 4.5-20.4 1.5-5.6 5.4-14.2 13.1-20.4 1-0.8 2.1-1.3 3.2-1.9q0.5-0.3 1.1-0.6c0.5-0.3 1-0.6 1.6-0.8q0.9-0.4 1.8-0.8 0.6-0.3 1.3-0.5c27.1-10.8 56.3-3.8 58.3-3.5 1.8 0.3 1.1-2.5 1-3z"/>
			</g>
			<g id="&lt;Group&gt;">
				<path id="&lt;Path&gt;" class="s58" d="m511.5 904.4l3-8c0 0 47.3 2.3 69.7 16.2l-42.7 0.8z"/>
				<path id="&lt;Path&gt;" class="s58" d="m656.9 904.4l-3-8c0 0-47.3 2.3-69.7 16.2l42.6 0.8z"/>
				<path id="&lt;Path&gt;" class="s59" d="m584.2 912.6c-25.6-9.9-75.1-10.6-75.1-10.6v16.8h64.1 22 64.1v-16.8c0 0-49.5 0.7-75.1 10.6z"/>
				<g id="&lt;Group&gt;">
					<path id="&lt;Path&gt;" class="s60" d="m665.1 919.9h-161.8v-5.8h161.8z"/>
				</g>
			</g>
			<path id="&lt;Compound Path&gt;" fill-rule="evenodd" class="s55" d="m1002.5 287.8c-2-3-3.2-6.7-3.2-10.7v-21.6c0-10.5 8.5-19.1 19-19.1h68.7c10.5 0 19.1 8.6 19.1 19.1v21.6c0 10.6-8.6 19.1-19.1 19.1h-68.7c-3.7 0-7.2-1.1-10.2-3l-14.3 9.3zm17.5-2.2h66c1 0 1.7-0.7 1.7-1.7 0-0.9-0.7-1.7-1.7-1.7h-66c-0.9 0-1.7 0.8-1.7 1.7 0 1 0.8 1.7 1.7 1.7zm67.7-10.6c0-0.9-0.7-1.7-1.7-1.7h-34.9c-0.9 0-1.7 0.8-1.7 1.7 0 0.9 0.8 1.7 1.7 1.7h34.9c1 0 1.7-0.8 1.7-1.7zm-67.7-7.2h66c1 0 1.7-0.8 1.7-1.7 0-1-0.7-1.7-1.7-1.7h-66c-0.9 0-1.7 0.7-1.7 1.7 0 0.9 0.8 1.7 1.7 1.7zm67.7-10.6c0-1-0.7-1.8-1.7-1.8h-48.7c-0.9 0-1.7 0.8-1.7 1.8 0 0.9 0.8 1.7 1.7 1.7h48.7c1 0 1.7-0.8 1.7-1.7zm-67.7-7.3h66c1 0 1.7-0.7 1.7-1.7 0-0.9-0.7-1.7-1.7-1.7h-66c-0.9 0-1.7 0.8-1.7 1.7 0 1 0.8 1.7 1.7 1.7z"/>
			<g id="&lt;Group&gt;">
				<g id="&lt;Group&gt;">
					<g id="&lt;Group&gt;">
						<path id="&lt;Path&gt;" class="s61" d="m401.5 475.6h-12"/>
						<path id="&lt;Path&gt;" class="s62" d="m379.7 475.6h-77.3c-4.4 0-8 3.7-8 8.1v305.5q0 1.4 0.5 2.8"/>
						<path id="&lt;Path&gt;" class="s61" d="m297.9 795.8c1.3 0.9 2.9 1.4 4.5 1.4h7.2"/>
					</g>
				</g>
				<g id="&lt;Group&gt;">
					<g id="&lt;Group&gt;">
						<path id="&lt;Path&gt;" class="s61" d="m1098.2 373.4h12"/>
						<path id="&lt;Path&gt;" class="s63" d="m1120.1 373.4h167.8c7.8 0 14.1 6.3 14.1 14.1v247.7c0 7.8-6.3 14.1-14.1 14.1h-4.8"/>
						<path id="&lt;Path&gt;" class="s61" d="m1278.2 649.3h-12"/>
					</g>
				</g>
				<path id="&lt;Path&gt;" class="s64" d="m577.7 184.5h114.3c12.8 0 23.1 10.4 23.1 23.1v109.1"/>
			</g>
			<g id="&lt;Group&gt;">
				<g id="&lt;Group&gt;">
					<g id="&lt;Group&gt;">
						<path id="&lt;Path&gt;" class="s12" d="m927.1 669c0 0-13.3-7.7-16.2-23 0 0 12.5 2.6 18.8 23"/>
					</g>
					<g id="&lt;Group&gt;">
						<path id="&lt;Path&gt;" class="s12" d="m932.3 669c0 0 13.3-7.7 16.1-23 0 0-12.5 2.6-18.7 23"/>
					</g>
					<g id="&lt;Group&gt;">
						<path id="&lt;Path&gt;" class="s12" d="m928.3 667.8c0 0-9.6-12-6.8-27.3 0 0 10.8 6.9 9.2 28.2"/>
					</g>
					<g id="&lt;Group&gt;">
						<path id="&lt;Path&gt;" class="s12" d="m931.4 667.8c0 0 9.2-12.2 6.1-27.4 0 0-10.6 7.2-8.5 28.4"/>
					</g>
				</g>
				<g id="&lt;Group&gt;">
					<path id="&lt;Path&gt;" class="s56" d="m943.8 690.1h-28.9v-24.2h28.9z"/>
					<path id="&lt;Path&gt;" class="s57" d="m923.5 690.1h-8.6v-24.2h8.6z"/>
				</g>
			</g>
			<g id="&lt;Group&gt;">
				<g id="&lt;Group&gt;" style="opacity: .5">
					<g id="&lt;Group&gt;">
						<g id="&lt;Group&gt;">
							<path id="&lt;Path&gt;" class="s65" d="m1210.2 521.1l-13.1 7 6.5-17"/>
						</g>
						<path id="&lt;Path&gt;" class="s65" d="m1250.7 499.4c0 15.3-12.3 27.6-27.6 27.6-15.3 0-27.6-12.3-27.6-27.6 0-15.3 12.3-27.6 27.6-27.6 15.3 0 27.6 12.3 27.6 27.6z"/>
					</g>
				</g>
				<path id="&lt;Path&gt;" class="s66" d="m1211.5 496.8l8.3 10.4 14.9-15.6"/>
			</g>
			<g id="&lt;Group&gt;">
				<g id="&lt;Group&gt;" style="opacity: .5">
					<g id="&lt;Group&gt;">
						<g id="&lt;Group&gt;">
							<path id="&lt;Path&gt;" class="s65" d="m352.7 612l13.1 6.9-6.5-17"/>
						</g>
						<path id="&lt;Path&gt;" class="s65" d="m312.2 590.2c0 15.3 12.3 27.7 27.6 27.7 15.3 0 27.6-12.4 27.6-27.7 0-15.2-12.3-27.6-27.6-27.6-15.3 0-27.6 12.4-27.6 27.6z"/>
					</g>
				</g>
				<path id="&lt;Path&gt;" class="s66" d="m328.2 587.6l8.4 10.4 14.8-15.6"/>
			</g>
			<g id="&lt;Group&gt;">
				<path id="&lt;Path&gt;" class="s12" d="m1233.3 353.6h-107.3c-2 0-3.6-1.6-3.6-3.6v-108.7c0-1.9 1.6-3.5 3.6-3.5h107.3c2 0 3.5 1.6 3.5 3.5v108.7c0 2-1.5 3.6-3.5 3.6z"/>
				<g id="&lt;Group&gt;" style="opacity: .5">
					<g id="&lt;Group&gt;">
						<path id="&lt;Path&gt;" class="s47" d="m1209.4 289.6c0 4.9-1 9.6-3 13.7q-1.3 3.1-3.3 5.8-1.4 1.9-3 3.5 0 0 0 0-1.4 1.4-2.9 2.6-2.2 1.9-4.7 3.3-1.9 1.1-4 1.9c-3.2 1.2-6.6 2-10.1 2.2q-1 0.1-2 0.1c-7.9 0-15.1-2.8-20.8-7.4-7.5-6.1-12.2-15.3-12.2-25.7 0-4.7 0.9-9.2 2.7-13.2 4.1-9.4 12.5-16.6 22.7-18.9q0.1-0.1 0.3-0.1 1.5-0.4 3.2-0.6 2-0.2 4.1-0.2c12.6 0 23.5 7 29.1 17.3q0.5 1.1 1 2.2c1.9 4.1 2.9 8.7 2.9 13.5z"/>
					</g>
					<g id="&lt;Group&gt;">
						<g id="&lt;Group&gt;" style="opacity: .5;mix-blend-mode: screen">
							<path id="&lt;Path&gt;" class="s67" d="m1184.7 318.9c0.2 1.6-1.8 2.6-3.4 3q-1.4 0.4-2.9 0.7-1 0.1-2 0.1c-7.9 0-15.1-2.8-20.8-7.4q-0.1-0.4-0.1-0.9c0-1.3 0.4-2.5 0.7-3.7q0.4-1.6 0.4-3.2c0.1-0.4 0-0.8-0.2-1.1-0.2-0.2-0.6-0.3-0.9-0.5-1.7-0.8-3.2-3.1-2.5-4.9 1.6-3.9 7.3-2.6 3.6-12.5-0.8-2.1 0.9-2.6 0.7-3.2-0.3-1.3-5.2-1-6.5-1.2-0.9-0.1-1.9-0.2-2.5-0.8-0.4-0.4-0.7-0.9-0.9-1.4-0.7-1.8-1.1-3.6-1.3-5.5 4.2-9.5 12.7-16.7 23-19l0.1 1.1q-0.5 5.6-0.7 11.2c-0.1 0.7-0.1 1.4-0.3 2-0.6 1.3-2.2 2-3.6 1.8-0.6 0-1.2-0.2-1.6 0.1-0.8 0.4-0.6 1.5-0.7 2.4-0.2 1.5-1.6 2.5-2.5 3.8-0.9 1.2-1.2 3.2 0.1 4 0.3 0.1 0.8 0.2 0.9 0.6 0.3 0.4 0 1-0.5 1.3-0.4 0.2-0.9 0.4-1.3 0.8-0.6 0.8-0.1 2 0.6 2.7 0.7 0.7 1.7 1.1 2.4 1.9 0.8 1 0.9 2.4 1.8 3.3 2.2 2.3 6.7-0.1 8.9 2.1 1.1 1.2 1.1 3.1 2.1 4.3 0.6 0.8 1.6 1.2 2.4 1.8 1.9 1.4 3.2 3.6 3.3 5.9 0.1 2.5-0.8 5.4 0.9 7.2 1.1 1.2 3.1 1.6 3.3 3.2z"/>
						</g>
						<g id="&lt;Group&gt;" style="opacity: .5;mix-blend-mode: screen">
							<path id="&lt;Path&gt;" class="s67" d="m1205.5 273.9c-0.6 0.1-1.2 0.1-1.7 0.2-0.2 0-0.4 0.1-0.6 0.2-0.2 0.3-0.1 0.7-0.1 1 0 1.1-0.4 2.2-1.3 2.9-0.1 0.1-0.3 0.3-0.5 0.3-0.6 0.1-1.1-0.6-1.3-1.2q-0.9-2.4-1.8-4.8c-0.2-0.5-0.4-1-0.8-1.3-0.7-0.5-1.8-0.3-2.6-0.8-1-0.6-1.4-2.2-2.5-1.9-0.9 0.2-0.9 1.4-0.6 2.3 0.3 0.8 0.6 1.9-0.1 2.5-0.7 0.6-1.9 0-2.4-0.8-0.6-0.7-1-1.7-1.9-2.1-1.3-0.4-2.6 0.7-3.4 1.9-0.7 1.2-1.3 2.6-2.6 3.1-0.6 0.2-1.3 0.1-1.9 0.5-1.2 0.7-1.2 2.4-0.8 3.8 0.4 1.3 1.1 2.7 0.4 4-0.1 0.2-0.2 0.5-0.5 0.6-0.5 0.2-1.1-0.3-1.4-0.8q-3-3.8-5.2-8.2c-0.3-0.5-0.6-1.1-0.5-1.8 0-0.4 0.2-0.7 0.4-1.1 0.4-1.3 0-2.8 0.2-4.1 0.3-2.4 2.2-4.6 1.4-6.8-0.2-0.8-0.8-1.5-1.2-2.3-0.4-0.8-0.5-1.8 0.1-2.4q2-0.2 4.1-0.2c12.6 0 23.5 7 29.1 17.3z"/>
						</g>
						<g id="&lt;Group&gt;" style="opacity: .5;mix-blend-mode: screen">
							<path id="&lt;Path&gt;" class="s67" d="m1209.4 289.6c0 4.9-1 9.6-2.9 13.7q-1.5 3.1-3.4 5.8 0 0 0 0c-0.1-0.2-0.1-0.4-0.1-0.6 0-0.8 0-1.7 0.4-2.4 0.2-0.4 0.6-0.8 0.8-1.3 0.6-1.1 0.5-2.4 0.4-3.7-0.1-0.7-0.2-1.4-0.6-1.9-0.3-0.3-0.8-0.5-1.1-0.8-0.7-0.8-0.5-2-0.3-3 0.2-1 0.1-2.3-0.9-2.7q-1.7 2.4-3.9 4.5c0.2-1.1-1.1-2.1-2.2-1.8-1 0.4-1.6 1.6-1.5 2.7-1 0-1.2-1.3-1.1-2.3q0.4-2.4 0.7-4.8c-1-0.5-1.8 1.2-2.9 1.4-1 0.2-1.8-0.7-1.9-1.6-0.1-1 0.3-1.9 0.7-2.8q0.8-1.5 1.5-3c0.7-1.3 1.4-2.7 2.7-3.4 1.6-0.8 3.4-0.2 5.2 0.2 1.7 0.4 3.7 0.6 5-0.6 0.7-0.8 1-1.9 1.2-2.9 0.2-0.9 0.4-1.9 1.2-2.2h0.1c1.9 4.1 2.9 8.7 2.9 13.5z"/>
						</g>
					</g>
					<g id="&lt;Group&gt;" style="opacity: .3;mix-blend-mode: multiply">
						<path id="&lt;Path&gt;" class="s47" d="m1201.6 311q-0.7 0.8-1.5 1.6 0 0 0 0-1.4 1.4-2.9 2.6-2.2 1.9-4.7 3.3-1.9 1.1-4 1.9c-3.2 1.2-6.6 2-10.1 2.2q-1 0.1-2 0.1c-7.9 0-15.1-2.8-20.8-7.4-7.5-6.1-12.2-15.3-12.2-25.7 0-4.7 0.9-9.2 2.7-13.2 4.1-9.4 12.5-16.6 22.7-18.9q0.1-0.1 0.3-0.1 1.5-0.4 3.2-0.6c0 0 0.1 0 0.2 0-3.3 3-5.9 6.6-7.7 10.7-1.7 3.9-2.7 8.2-2.7 12.7 0 10 4.6 18.9 11.8 24.7 5.4 4.4 12.4 7.1 19.9 7.1q1 0 2-0.1 3-0.2 5.8-0.9z"/>
					</g>
					<path id="&lt;Path&gt;" class="s60" d="m1216.9 289.5c0-12.2-5.4-23.7-14.8-31.4-7.3-6-16.4-9.3-25.8-9.3-1.2 0-2.2 1-2.2 2.1 0 1.2 1 2.2 2.2 2.2 8.4 0 16.6 2.9 23.1 8.3 8.4 6.9 13.3 17.2 13.3 28.1 0 20-16.4 36.4-36.4 36.4-11 0-21.3-4.9-28.2-13.4-0.8-0.9-2.1-1-3-0.3-0.5 0.4-0.7 0.9-0.8 1.5 0 0.5 0.1 1.1 0.5 1.5 7.2 8.9 17.7 14.2 28.9 14.9v7.1h-12.2c-1.5 0-2.7 1.2-2.7 2.6 0 1.5 1.2 2.7 2.7 2.7h29.8c1.5 0 2.7-1.2 2.7-2.7 0-1.4-1.2-2.6-2.7-2.6h-12.3v-7.2c21.2-1.4 37.9-19 37.9-40.5z"/>
				</g>
			</g>
			<g id="&lt;Group&gt;">
				<g id="&lt;Group&gt;">
					<g id="&lt;Group&gt;">
						<path id="&lt;Path&gt;" class="s47" d="m599.9 801.8c0.8 6.1-3.5 11.7-9.6 12.5-6.1 0.8-11.7-3.5-12.5-9.6-0.8-6.1 3.5-11.7 9.6-12.5 6.1-0.8 11.7 3.5 12.5 9.6z"/>
					</g>
					<path id="&lt;Path&gt;" class="s68" d="m584.1 804.4l4.9 3.7 4.8-8.6"/>
				</g>
				<g id="&lt;Group&gt;">
					<g id="&lt;Group&gt;">
						<path id="&lt;Path&gt;" class="s47" d="m629.9 215.9c1.9 5.8-1.3 12.1-7.1 14-5.9 2-12.1-1.2-14.1-7.1-1.9-5.8 1.3-12.1 7.2-14 5.8-1.9 12.1 1.3 14 7.1z"/>
					</g>
					<path id="&lt;Path&gt;" class="s68" d="m614.8 221.4l5.5 2.7 3.1-9.4"/>
				</g>
				<g id="&lt;Group&gt;">
					<g id="&lt;Group&gt;">
						<path id="&lt;Path&gt;" class="s47" d="m1228.9 422.3c-0.7 9.4-8.8 16.4-18.2 15.7-9.4-0.6-16.4-8.8-15.7-18.2 0.6-9.4 8.8-16.4 18.2-15.7 9.4 0.7 16.4 8.8 15.7 18.2z"/>
					</g>
					<path id="&lt;Path&gt;" class="s69" d="m1204.4 421.3l6.2 7 9.8-11.4"/>
				</g>
				<g id="&lt;Group&gt;">
					<path id="&lt;Path&gt;" class="s47" d="m1176.7 420.5c0 2.2-1.9 4-4.1 4-2.3 0-4.1-1.8-4.1-4 0-2.3 1.8-4.1 4.1-4.1 2.2 0 4.1 1.8 4.1 4.1z"/>
				</g>
				<g id="&lt;Group&gt;" style="opacity: .3">
					<path id="&lt;Path&gt;" class="s47" d="m1038.8 138.8c0 2.2-1.9 4.1-4.1 4.1-2.3 0-4.1-1.9-4.1-4.1 0-2.3 1.8-4.1 4.1-4.1 2.2 0 4.1 1.8 4.1 4.1z"/>
				</g>
				<g id="&lt;Group&gt;">
					<path id="&lt;Path&gt;" class="s47" d="m371.6 512.2c0 3.6-2.9 6.6-6.5 6.6-3.6 0-6.5-3-6.5-6.6 0-3.6 2.9-6.5 6.5-6.5 3.6 0 6.5 2.9 6.5 6.5z"/>
				</g>
				<g id="&lt;Group&gt;" style="opacity: .3">
					<path id="&lt;Path&gt;" class="s47" d="m1365.2 578.4c0 5.5-4.5 10-10.1 10-5.6 0-10.1-4.5-10.1-10 0-5.6 4.5-10.1 10.1-10.1 5.6 0 10.1 4.5 10.1 10.1z"/>
				</g>
				<g id="&lt;Group&gt;" style="opacity: .3">
					<path id="&lt;Path&gt;" class="s47" d="m266 439.5c0 5.6-4.5 10.1-10.1 10.1-5.5 0-10-4.5-10-10.1 0-5.5 4.5-10 10-10 5.6 0 10.1 4.5 10.1 10z"/>
				</g>
				<g id="&lt;Group&gt;" style="opacity: .3">
					<path id="&lt;Path&gt;" class="s47" d="m1282.6 669c0 3.6-2.9 6.6-6.6 6.6-3.6 0-6.5-3-6.5-6.6 0-3.6 2.9-6.5 6.5-6.5 3.7 0 6.6 2.9 6.6 6.5z"/>
				</g>
				<g id="&lt;Group&gt;" style="opacity: .3">
					<path id="&lt;Path&gt;" class="s47" d="m772.5 162.4c0 3.7-2.9 6.6-6.5 6.6-3.7 0-6.6-2.9-6.6-6.6 0-3.6 2.9-6.5 6.6-6.5 3.6 0 6.5 2.9 6.5 6.5z"/>
				</g>
				<g id="&lt;Group&gt;" style="opacity: .2">
					<path id="&lt;Path&gt;" class="s47" d="m894.2 129.6c0 3.7-3 6.6-6.6 6.6-3.6 0-6.5-2.9-6.5-6.6 0-3.6 2.9-6.5 6.5-6.5 3.6 0 6.6 2.9 6.6 6.5z"/>
				</g>
				<g id="&lt;Group&gt;">
					<g id="&lt;Group&gt;">
						<g id="&lt;Group&gt;">
							<path id="&lt;Path&gt;" class="s47" d="m247.9 351.1c-0.7 0-1.3-0.6-1.3-1.3v-9.3c0-0.7 0.6-1.3 1.3-1.3 0.8 0 1.3 0.6 1.3 1.3v9.3c0 0.7-0.5 1.3-1.3 1.3z"/>
						</g>
						<g id="&lt;Group&gt;">
							<path id="&lt;Path&gt;" class="s47" d="m252.5 346.5h-9.2c-0.7 0-1.3-0.6-1.3-1.3 0-0.8 0.6-1.4 1.3-1.4h9.2c0.8 0 1.4 0.6 1.4 1.4 0 0.7-0.6 1.3-1.4 1.3z"/>
						</g>
					</g>
				</g>
				<g id="&lt;Group&gt;" style="opacity: .3">
					<g id="&lt;Group&gt;">
						<g id="&lt;Group&gt;">
							<path id="&lt;Path&gt;" class="s47" d="m320.2 119.5c-0.7 0-1.3-0.6-1.3-1.3v-9.2c0-0.7 0.6-1.3 1.3-1.3 0.8 0 1.3 0.6 1.3 1.3v9.2c0 0.7-0.5 1.3-1.3 1.3z"/>
						</g>
						<g id="&lt;Group&gt;">
							<path id="&lt;Path&gt;" class="s47" d="m324.8 114.9h-9.2c-0.7 0-1.3-0.6-1.3-1.3 0-0.7 0.6-1.3 1.3-1.3h9.2c0.8 0 1.3 0.6 1.3 1.3 0 0.7-0.5 1.3-1.3 1.3z"/>
						</g>
					</g>
				</g>
				<g id="&lt;Group&gt;">
					<g id="&lt;Group&gt;">
						<g id="&lt;Group&gt;">
							<path id="&lt;Path&gt;" class="s47" d="m1086.9 229.8c-0.8 0-1.4-0.6-1.4-1.3v-9.2c0-0.8 0.6-1.3 1.4-1.3 0.7 0 1.3 0.5 1.3 1.3v9.2c0 0.7-0.6 1.3-1.3 1.3z"/>
						</g>
						<g id="&lt;Group&gt;">
							<path id="&lt;Path&gt;" class="s47" d="m1091.5 225.2h-9.3c-0.7 0-1.3-0.6-1.3-1.3 0-0.8 0.6-1.3 1.3-1.3h9.3c0.7 0 1.3 0.5 1.3 1.3 0 0.7-0.6 1.3-1.3 1.3z"/>
						</g>
					</g>
				</g>
				<g id="&lt;Group&gt;">
					<g id="&lt;Group&gt;">
						<g id="&lt;Group&gt;">
							<path id="&lt;Path&gt;" class="s47" d="m1371.1 716.2c-0.8 0-1.3-0.6-1.3-1.3v-9.2c0-0.7 0.5-1.3 1.3-1.3 0.7 0 1.3 0.6 1.3 1.3v9.2c0 0.7-0.6 1.3-1.3 1.3z"/>
						</g>
						<g id="&lt;Group&gt;">
							<path id="&lt;Path&gt;" class="s47" d="m1375.7 711.6h-9.2c-0.8 0-1.3-0.6-1.3-1.3 0-0.7 0.5-1.3 1.3-1.3h9.2c0.7 0 1.3 0.6 1.3 1.3 0 0.7-0.6 1.3-1.3 1.3z"/>
						</g>
					</g>
				</g>
			</g>
			<g id="&lt;Group&gt;">
				<g id="&lt;Group&gt;">
					<path id="&lt;Path&gt;" class="s12" d="m1063.6 347.7v70.2c0 1.2-0.9 2.2-2.1 2.2h-69.5c-1.2 0-2.2-1-2.2-2.2v-70.2c0-1.2 1-2.2 2.2-2.2h69.5c1.2 0 2.1 1 2.1 2.2z"/>
					<g id="&lt;Group&gt;">
						<path id="&lt;Path&gt;" class="s47" d="m1063.6 404.8v13.1c0 1.2-0.9 2.2-2.1 2.2h-34.5l1.5-15.3 16.2-18z"/>
					</g>
					<g id="&lt;Group&gt;">
						<path id="&lt;Path&gt;" class="s70" d="m1054 420.1h-62c-1.2 0-2.2-1-2.2-2.2v-13.1l24.3-25.5z"/>
					</g>
					<g id="&lt;Group&gt;">
						<path id="&lt;Path&gt;" class="s47" d="m1053.9 365.7c0 4.7-3.9 8.6-8.6 8.6-4.7 0-8.5-3.9-8.5-8.6 0-4.7 3.8-8.5 8.5-8.5 4.7 0 8.6 3.8 8.6 8.5z"/>
					</g>
				</g>
				<path id="&lt;Path&gt;" class="s12" d="m1062.1 432.1h-70.7c-0.8 0-1.6-0.7-1.6-1.5v-3.4c0-0.9 0.8-1.6 1.6-1.6h70.7c0.8 0 1.5 0.7 1.5 1.6v3.4c0 0.8-0.7 1.5-1.5 1.5z"/>
				<path id="&lt;Path&gt;" class="s12" d="m1062.1 443.8h-70.7c-0.8 0-1.6-0.7-1.6-1.6v-3.4c0-0.8 0.8-1.6 1.6-1.6h70.7c0.8 0 1.5 0.8 1.5 1.6v3.4c0 0.9-0.7 1.6-1.5 1.6z"/>
			</g>
		</g>
	</g>
</svg>