<svg width="14" height="14" viewBox="0 0 14 14" fill="none"
  xmlns="http://www.w3.org/2000/svg">
  <path fill-rule="evenodd" clip-rule="evenodd" d="M4.2756 0.857307C4.35765 0.77526 4.46893 0.729166 4.58496 0.729166H9.41496C9.53099 0.729166 9.64227 0.77526 9.72432 0.857307L13.1427 4.27564C13.2247 4.35769 13.2708 4.46897 13.2708 4.585V9.415C13.2708 9.53103 13.2247 9.64231 13.1427 9.72436L9.72432 13.1427C9.64227 13.2247 9.53099 13.2708 9.41496 13.2708H4.58496C4.46893 13.2708 4.35765 13.2247 4.2756 13.1427L0.857267 9.72436C0.77522 9.64231 0.729126 9.53103 0.729126 9.415V4.585C0.729126 4.46897 0.77522 4.35769 0.857267 4.27564L4.2756 0.857307ZM4.76618 1.60417L1.60413 4.76622V9.23378L4.76618 12.3958H9.23374L12.3958 9.23378V4.76622L9.23374 1.60417H4.76618Z" fill="#E02424"/>
  <path fill-rule="evenodd" clip-rule="evenodd" d="M6.99996 4.22917C7.24158 4.22917 7.43746 4.42504 7.43746 4.66667V7C7.43746 7.24162 7.24158 7.4375 6.99996 7.4375C6.75833 7.4375 6.56246 7.24162 6.56246 7V4.66667C6.56246 4.42504 6.75833 4.22917 6.99996 4.22917Z" fill="#E02424"/>
  <path fill-rule="evenodd" clip-rule="evenodd" d="M6.56246 9.33333C6.56246 9.09171 6.75833 8.89583 6.99996 8.89583H7.00579C7.24742 8.89583 7.44329 9.09171 7.44329 9.33333C7.44329 9.57496 7.24742 9.77083 7.00579 9.77083H6.99996C6.75833 9.77083 6.56246 9.57496 6.56246 9.33333Z" fill="#E02424"/>
</svg>
